<svg id="레이어_1" data-name="레이어 1" xmlns="http://www.w3.org/2000/svg" viewBox="0 0 17320.93 3567.53"><defs><style>.cls-1{fill:#fefffe;}.cls-2{fill:#fff;}</style></defs><title>jjinggu2_en</title><path class="cls-1" d="M-5436.51,3287.88c260-2.23,513.41-46.94,755.65-148,201-83.88,379.86-200.55,525.4-364.23,121.2-136.29,203-292.82,230.8-474.51,23.29-152.34,2.62-299.75-57.13-441.74-43.38-103.06-104.2-194.9-178.76-277.9-49.29-54.86-49-122.12.66-169.61,43.62-41.7,109.52-42.35,154.83-1.37,21.62,19.54,39.4,42.61,57.67,65.09,114.21,140.52,197,297.09,236.73,474.53,51.75,231.12,26.89,455-70.3,670.46-85.22,189-214.81,343.66-375.06,473.12-258.48,208.83-555.77,330.46-881,388.76-148.53,26.62-298.22,39.55-448.86,35.72-324.25-8.25-635.06-75.14-926.06-222.24-166.16-84-317.19-189.82-446.47-324.45-156.51-163-268.61-351.49-314.38-574.84-43.18-210.71-25.15-416.69,56.88-616.39,55.34-134.74,134.47-254.19,231.8-361.9,41.87-46.33,113.52-50.54,160.11-10.8,48.55,41.42,55.72,112.76,13.69,161.74-59,68.72-114.06,139.94-155.64,220.74-55.71,108.27-90.41,222.17-96.7,344.73-11.52,224.61,62.31,420,199.16,594.45,114.71,146.27,259.39,256,422,343.27,190.53,102.26,394.53,163.46,607.82,194.38C-5635.8,3281.06-5537.17,3287.65-5436.51,3287.88Z" transform="translate(7195.49 48.69)"/><path class="cls-1" d="M-6200.46-48.32c201,2.66,365.75,81.69,496.59,233.78,29.41,34.19,60.64,66.82,91.12,100.09q69.66,76,139.46,152c3.64,4,7.33,7.87,11.16,11.63,19.69,19.4,22.7,19.73,41.53.84q26.18-26.25,51.17-53.67c75.26-82.57,148.71-166.86,225.85-247.62,95.59-100.06,212.92-164,349.44-186.89,187-31.27,359.57,6.48,510.49,124.4,141.3,110.4,223.92,255.26,245.15,434.14,20.8,175.24-25.62,331.78-131.19,471.88-11.71,15.54-24.66,29.75-41.93,39.47-49.34,27.78-108.79,17.15-145.92-26.22-35.26-41.19-37.16-101.65-1.91-145.58,41.13-51.26,69.4-108.14,84.52-172,54.82-231.54-104.62-469.13-340.39-500.8-150.82-20.25-279.42,26.58-380.91,143.35-49.31,56.74-101.41,111.06-152.34,166.39-37.83,41.12-76.23,81.72-113.54,123.3-19.54,21.78-19.37,23.08,0,45.16,30.47,34.7,61.74,68.72,93,102.74,77,83.86,154.57,167.28,231.3,251.42,64.12,70.3,32.75,173.68-58.63,194.32-38.62,8.72-72.51-2.7-101.33-28.47-13.54-12.11-24.74-26.81-37.11-40.23q-145.3-157.57-290.71-315c-13.36-14.45-15.3-14.8-30.5,1.33C-5491.45,868.88-5526,907.17-5561,945c-72.91,78.9-145,158.64-219.19,236.29-48.07,50.28-122.18,46.21-168.15-5.9-30.54-34.63-36.5-88.58-13.29-129.56a184.69,184.69,0,0,1,24.74-33.65q132-143.55,264.56-286.54c20.41-22.1,40-45,61-66.47,11.93-12.16,10.25-20.78-.66-32.47-38.85-41.61-76.78-84.09-115.24-126.07-54.42-59.42-109.42-118.32-163.41-178.13-64.18-71.09-142.42-117.94-236.86-133.71-277.86-46.38-482.65,166.08-487.39,390.85-2.16,102.09,25.6,192.75,88.67,272.85,31.09,39.49,40.75,82.52,18.36,129.4-33.87,70.93-124.58,87.45-181.54,33.21-29.9-28.46-51.63-63.24-72.07-98.59-145.83-252.13-104.44-587.74,120.89-794C-6516.63,9.16-6370-49.51-6200.46-48.32Z" transform="translate(7195.49 48.69)"/><path class="cls-1" d="M-5671.82,1963.39c-.65,14.15-9.83,27.76-23.84,39.28-29.85,24.56-58.47,50.69-89.1,74.22-22,16.88-27.24,37.18-21.17,62.46,9,37.6,17.25,75.41,27.24,112.75,7.1,26.54,4.44,49.84-19.2,65.9-22.88,15.55-46.44,12.3-69.41-2.38-32.58-20.83-66-40.31-98.38-61.48-21.62-14.15-41.28-13.78-62.74.4-29.57,19.53-60.14,37.53-90.29,56.19-5.48,3.39-10.71,7.31-16.49,10.07-20.74,9.92-41.89,11.14-61.06-2.65s-25.56-34.07-21.06-57.1c3.08-15.8,7.5-31.34,11.35-47,5.13-20.86,9.3-42,15.64-62.51,10.42-33.63,4.78-59.42-26.25-81-29.84-20.76-56.16-46.58-84-70.21-19.15-16.25-26.49-36.93-18.4-60.64,8-23.37,25.5-36.47,50.8-38.12,37.49-2.45,75-5.73,112.47-7.38,32.6-1.45,53.65-14.94,64.61-47.29,12-35.54,27.9-69.79,42.43-104.46,10.19-24.31,27.77-36.84,55.21-35.73,24.95,1,39.65,14.5,48.62,35.86,13.74,32.67,28.89,65,39.76,98.59,12.56,38.86,37.76,53.7,77.07,53.83,34.28.11,68.58,3.84,102.8,6.74C-5692.77,1904.49-5670.87,1928.47-5671.82,1963.39Z" transform="translate(7195.49 48.69)"/><path class="cls-1" d="M-5103.92,2266.61c.79-4.14,2.25-13.68,4.49-23,8-33.4,15.1-67.09,24.82-100,8.08-27.36,1.5-47.71-20.46-65.28-25.13-20.11-49.18-41.55-73.66-62.47-7.34-6.27-14.6-12.65-21.81-19.07-18.42-16.44-20.6-37.37-13.73-59.06,7.25-22.86,25-34.15,48.54-36,32.09-2.48,64.21-4.59,96.3-6.93,11.77-.86,23.55-1.66,35.27-3,19.9-2.26,32.91-12.44,40.37-31.8,15.06-39.06,31.76-77.48,47.47-116.29,8.83-21.79,23.24-35.48,47.85-36.78,25.09-1.32,44.4,7.35,54.63,31.15,13.15,30.57,25.57,61.45,38.29,92.21,3.69,8.92,7.75,17.73,10.92,26.84,7.56,21.78,23,32.9,45.58,34.74q56.13,4.59,112.26,9.08c5.35.43,10.75.28,16.08.85,23.36,2.49,40.42,13.9,48.75,36.29,8.44,22.72,2.42,42.65-15,58.45-23.86,21.62-48.59,42.26-73,63.25-4.88,4.2-9.84,8.34-15.08,12.06-27.8,19.74-37.18,44.13-26,78.17,11,33.56,17.31,68.66,26.17,102.95,6.46,25,3.5,48-17.69,64-22.1,16.66-46.35,14.05-69.4-.07-30.21-18.5-61.46-35.6-90.09-56.32-29.91-21.66-55.92-19.86-85.08,1.11-26.95,19.38-56.3,35.45-84.71,52.79-6.38,3.9-12.91,8-19.94,10.33C-5070.25,2337.44-5104.46,2312.26-5103.92,2266.61Z" transform="translate(7195.49 48.69)"/><path class="cls-2" d="M5777.55,2106.1c3.37,93.83.86,186.69-16.61,280.2-53.25,285.06-224,459.31-497.24,534.23-284.95,78.13-573.33,87.13-854.87-11.51-453.18-158.78-684.78-503.26-760.69-960-86-517.24,127.72-1147.89,701.42-1374.84C4711.85,430.87,5070,457.51,5423.83,598.3c118.93,47.32,211.17,134.29,269.63,250.8,54.55,108.73,44.24,216-34.38,307-72.1,83.49-169.41,113.08-276.63,76.25-81.13-27.86-159.57-63.9-238.35-98.26-281.82-122.91-570.12-74.07-755.49,128.93-191.62,209.85-223.29,575.64-72.24,834.54,137.29,235.32,427.16,351.85,713.42,289.38,113.92-24.87,179.61-92.4,190.21-207.45,7.16-77.76,2.73-156.53,7.94-234.55,11.62-173.94,100.88-268.81,256.39-276.82,142.1-7.31,269.14,98.07,291.72,250.45C5785.12,1979.83,5777.55,2043.53,5777.55,2106.1Z" transform="translate(7195.49 48.69)"/><path class="cls-2" d="M5927.17,1788.58c-.82-526.08,156.62-906.91,561.14-1138.14C6913.86,407.2,7356.62,430,7791,646.14c102.6,51.05,173.45,135.48,199.92,248.39,24.34,103.85,13.21,202.83-70.72,281.59-83.42,78.29-179.39,91.37-282.68,50.06-65.27-26.1-127.2-60.44-191.89-88.16-303.9-130.21-620.05-72.11-795.26,145-200.17,248.07-199.81,635.37.84,896.58,145.64,189.61,481,282.64,706.84,197.16,92.55-35,130.93-105.25,136.33-199.2,5.38-93.6.58-189.37,19.27-280.27,33.11-161,147.17-234.09,311.1-216.1,143.13,15.71,216.51,90.62,224.26,250.82,6.79,140.48,6.44,282.23-4,422.42-17.08,229.3-136.43,404.18-340.21,500.64-399.8,189.25-1101.77,200.1-1490-266.35C6005.39,2337.14,5912,2044.89,5927.17,1788.58Z" transform="translate(7195.49 48.69)"/><path class="cls-2" d="M2059.2,680c208.92-140.32,406.12-221.33,639.59-188,429.58,61.26,706.13,323.39,728.18,758.88,23.77,469.31,12,940.64,7.63,1411-1.5,162.17-114.24,268.15-262.84,276.43-146.5,8.14-264.73-92.2-288.63-252.27-9.19-61.55-5.79-125.15-5.9-187.82-.58-352.85,4-705.78-1.91-1058.54-5.58-333.68-263.47-489.92-569.3-350.82-149.47,68-189.51,197.14-189.2,348.54.72,352.86,0,705.71-.21,1058.56,0,54.89,2.65,110.06-1.81,164.61-14.1,172.45-129.68,283.08-286.67,277.85-149.32-5-254.28-109.84-268.67-271.59-4.15-46.71-1.88-94-1.89-141.07q-.15-799.8.18-1599.61c0-62.65-4.49-126.73,6.58-187.7,37.52-206.46,244.49-282.3,407.79-151.35C2001.67,610.81,2024.65,642.7,2059.2,680Z" transform="translate(7195.49 48.69)"/><path class="cls-2" d="M10124.07,1509.3q0,293.73,0,587.44c-.29,582.74-361.14,879.14-955.6,881-115.65.36-235.15-22.41-346.41-55.93-351.63-105.93-553.4-373.44-572-802.33-18.61-430-10-861.43-3.79-1292.11,2.8-193.79,123.24-311.94,283.79-307.72,162.87,4.28,268,120.89,270.51,317.61,4.41,344.57,1.52,689.24,1.85,1033.88,0,54.82-1.88,109.84,1.92,164.43,22.09,317.68,341.74,484.26,615,321,123.58-73.84,148-192.57,147.73-324.23q-1.24-540.43,1.09-1080.89c.3-70.16-.88-142.21,13.93-210.05,31.47-144.17,151-231.43,289.38-222.88C10006,526.74,10116,630.87,10121.08,781c8.27,242.51,2.22,485.52,2.22,728.31Z" transform="translate(7195.49 48.69)"/><path class="cls-2" d="M416,1460.92q0,258.36-.08,516.71c0,39.14,1,78.45-2.08,117.39C343.53,2976.24-369.73,3109.64-935,2871.78c-140.32-59-227.15-165.15-235.12-322.73-9-177.48,108.13-284.53,282.13-248.82,74.85,15.36,144.12,58,215.85,88.47,254,107.74,452.56,8.43,511-262.63,17.91-83.13,19-170.89,19.53-256.6q3.54-528.42,1.53-1056.89c-.27-121.15,48.53-213.05,156-268.11,101.41-51.92,199.63-29.31,287,34.76,90.25,66.22,112.33,165.53,112.65,271,.62,203.55.18,407.1.18,610.65Z" transform="translate(7195.49 48.69)"/><path class="cls-2" d="M-1270.48,1484.05c0,211.25,6.24,422.71-1.13,633.71C-1296.55,2831-2008.09,3217.85-2628.38,2857c-46.59-27.11-91-62.14-127.44-101.75-111.73-121.45-126.16-278-41.15-385,70.11-88.29,195-101.83,344.54-37.37,444.69,191.71,624.44,73.06,625.7-414.15.85-328.62-.36-657.24.78-985.86.21-62.32-.77-126.34,12.46-186.58,32.07-146,151.89-236.81,286.17-226.18,138,10.94,246.44,112,254.45,260,9.72,179.47,3.89,359.77,4.66,539.72.23,54.76,0,109.54,0,164.31Z" transform="translate(7195.49 48.69)"/><path class="cls-2" d="M1259.7,1730.29q0,400,.08,800c.07,78.82-2.66,157.27-35.57,230.71-50.9,113.58-168.52,184.71-282,171.88-129.66-14.65-227.77-109.55-233.67-251.66-8.78-211.42-4.07-423.42-4.27-635.17q-.54-553,0-1105.91c0-54.89-2.63-110.22,3.16-164.57,14.93-140.21,108.1-236.68,236.75-250.87,111.09-12.25,230.16,61.53,280.5,174.74,32.71,73.59,35.12,152,35.07,230.81Q1259.52,1330.28,1259.7,1730.29Z" transform="translate(7195.49 48.69)"/></svg>