<svg width="148" height="148" viewBox="0 0 148 148" fill="none" xmlns="http://www.w3.org/2000/svg">
<mask id="mask0_207_307" style="mask-type:alpha" maskUnits="userSpaceOnUse" x="0" y="0" width="148" height="148">
<g clip-path="url(#clip0_207_307)">
<path d="M36.5 127.572C36.5 139.407 46.094 149 57.9286 149C69.7633 149 79.3572 139.407 79.3572 127.572C79.3572 115.737 69.7633 106.144 57.9286 106.144H36.5V127.572Z" fill="white"/>
<path d="M36.5 20.428C36.5 8.59338 46.094 -1.00049 57.9286 -1.00049H143.643V20.428C143.643 32.2628 134.049 41.8567 122.214 41.8567H57.9286C46.094 41.8567 36.5 32.2628 36.5 20.428Z" fill="white"/>
<path d="M4.35669 73.9993C4.35669 62.1647 13.9506 52.5708 25.7853 52.5708H111.5V73.9993C111.5 85.8341 101.906 95.4278 90.0713 95.4278H25.7853C13.9506 95.4278 4.35669 85.8341 4.35669 73.9993Z" fill="white"/>
</g>
</mask>
<g mask="url(#mask0_207_307)">
<rect width="150" height="150" fill="#333333"/>
</g>
<defs>
<clipPath id="clip0_207_307">
<rect width="148" height="148" fill="white"/>
</clipPath>
</defs>
</svg>
