<svg width="2616" height="538" viewBox="0 0 2616 538" fill="none" xmlns="http://www.w3.org/2000/svg">
<mask id="mask0_213_142" style="mask-type:alpha" maskUnits="userSpaceOnUse" x="0" y="0" width="2616" height="538">
<g clip-path="url(#clip0_213_142)">
<path d="M265.346 502.628C270.328 502.567 275.311 502.515 280.293 502.442C282.784 502.405 285.275 502.374 287.733 501.871C288.497 501.716 289.276 501.644 290.055 501.657C294.903 501.745 299.685 500.991 304.46 500.384C310.628 499.602 316.762 498.518 322.88 497.421C331.617 495.853 340.227 493.719 348.783 491.365C355.691 489.464 362.47 487.163 369.188 484.682C374.445 482.742 379.652 480.685 384.78 478.415C391.476 475.453 398.022 472.196 404.416 468.643C410.137 465.479 415.74 462.12 421.143 458.433C428.088 453.695 434.79 448.67 441.192 443.203C446.863 438.344 452.236 433.15 457.285 427.649C464.248 420.085 470.365 411.852 475.743 403.079C481.184 394.181 485.591 384.693 488.878 374.799C490.841 368.905 492.461 362.895 493.31 356.717C493.817 353.027 494.358 349.341 494.841 345.648C494.963 344.567 495.026 343.48 495.029 342.393C495.076 340.062 495.066 337.731 495.112 335.4C495.239 329.007 494.475 322.701 493.471 316.401C492.276 309.034 490.417 301.791 487.917 294.758C484.964 286.369 480.972 278.463 476.583 270.754C473.11 264.665 469.023 258.982 464.676 253.493C462.459 250.693 460.079 248.018 457.722 245.332C455.96 243.323 454.497 241.173 453.622 238.619C451.775 233.241 452.603 228.263 455.512 223.458C457.836 219.617 461.326 217.452 465.468 216.243C471.872 214.375 477.449 216.053 482.201 220.59C484.45 222.739 486.416 225.15 488.438 227.522C493.598 233.569 498.238 239.982 502.601 246.609C505.424 250.899 507.979 255.34 510.438 259.847C515.294 268.747 519.195 278.045 522.366 287.655C524.811 295.033 526.629 302.603 527.801 310.286C528.289 313.508 528.8 316.728 529.259 319.956C529.41 321.029 529.465 322.12 529.516 323.206C529.678 326.618 529.738 330.028 530.138 333.436C530.407 335.725 530.138 338.085 530.04 340.41C529.996 341.493 529.678 342.574 529.705 343.65C529.827 348.49 529.072 353.26 528.483 358.029C528.009 361.875 527.168 365.683 526.359 369.482C524.116 380.003 520.685 390.135 516.394 400.003C512.911 408.009 508.695 415.596 504.093 423.002C499.728 430.017 494.732 436.547 489.599 442.995C487.559 445.557 485.371 447.968 483.149 450.361C481.135 452.519 479.241 454.792 477.187 456.91C472.524 461.712 467.39 465.996 462.357 470.399C453.667 478.006 444.267 484.627 434.577 490.868C428.561 494.745 422.408 498.402 416.007 501.636C408.506 505.429 401.019 509.25 393.241 512.457C389.356 514.057 385.476 515.68 381.531 517.128C368.806 521.784 355.881 525.805 342.661 528.829C335.23 530.53 327.781 532.144 320.221 533.199C314.369 534.016 308.525 534.877 302.673 535.694C301.75 535.824 300.81 535.828 299.878 535.884C298.947 535.94 297.994 535.884 297.082 536.056C292.925 536.83 288.719 536.823 284.519 536.934C284.052 536.925 283.584 536.945 283.119 536.995C276.929 537.957 270.691 537.609 264.47 537.683C261.511 537.718 258.553 537.695 255.594 537.614C253.731 537.564 251.873 537.353 250.008 537.224C248.456 537.117 246.904 536.989 245.35 536.922C241.464 536.772 237.56 536.9 233.725 536.084C233.418 536.032 233.107 536.004 232.795 536C227.503 535.751 222.284 534.906 217.04 534.223C210.864 533.42 204.724 532.409 198.621 531.19C190.531 529.573 182.48 527.777 174.556 525.464C169.329 523.936 164.077 522.471 158.919 520.727C151.55 518.234 144.258 515.513 137.082 512.49C129.616 509.345 122.355 505.774 115.158 502.07C102.675 495.646 90.8805 488.127 79.6024 479.782C75.224 476.542 71.0509 473.05 66.8069 469.641C66.6845 469.547 66.5671 469.446 66.4551 469.34C62.1189 465.098 57.2816 461.395 53.1236 456.961C49.8353 453.454 41.2158 443.851 37.7796 439.421C35.3986 436.347 33.0403 433.255 30.8436 430.057C28.1169 426.087 25.4431 422.062 23.0606 417.88C20.0637 412.62 17.1483 407.314 14.6934 401.748C11.9923 395.62 9.51774 389.423 7.50519 383.045C4.98101 375.038 3.09993 366.843 1.87973 358.537C1.20335 353.944 0.504337 349.317 0.620591 344.629C0.650787 343.395 0.469597 342.149 0.30352 340.919C-0.128825 337.838 -0.121688 334.71 0.324678 331.631C0.484907 330.555 0.579677 329.471 0.608501 328.384C0.91046 315.877 3.29895 303.725 6.71712 291.723C8.98181 283.772 12.098 276.172 15.4648 268.644C20.8276 256.656 27.8316 245.659 35.7233 235.219C39.466 230.266 43.2843 225.345 47.708 220.94C49.3854 219.27 51.2107 217.878 53.3939 216.942C55.2766 216.136 57.2785 215.832 59.2624 215.449C59.5699 215.395 59.8836 215.384 60.194 215.419C64.6192 215.857 68.7605 217.036 72.1349 220.122C74.7499 222.51 76.311 225.547 77.1338 228.916C78.6104 234.96 76.995 240.297 72.9366 244.908C69.6468 248.644 66.4445 252.442 63.4053 256.384C54.7904 267.55 48.1051 279.801 43.0458 292.924C40.304 300.041 38.4348 307.429 37.0549 314.933C36.5491 317.685 36.3423 320.48 35.9286 323.233C34.9759 329.583 35.1993 335.942 35.2627 342.307C35.2778 343.853 35.4786 345.402 35.6719 346.941C36.0569 350.021 36.4902 353.095 36.9114 356.169C38.1615 365.312 40.9154 374.043 44.2898 382.588C49.2917 395.258 56.2761 406.791 64.5512 417.588C70.8169 425.764 77.8918 433.196 85.4996 440.101C92.1967 446.146 99.292 451.737 106.738 456.836C117.244 464.088 128.34 470.45 139.911 475.852C146.113 478.745 152.417 481.413 158.823 483.855C171.221 488.554 183.897 492.282 196.814 495.223C203.032 496.638 209.287 497.878 215.595 498.862C220.36 499.605 225.127 500.265 229.925 500.786C233.486 501.174 237.056 501.368 240.611 501.724C244.798 502.142 248.974 502.519 253.183 502.509C257.233 502.5 261.28 502.509 265.329 502.509L265.346 502.628Z" fill="#FEFEFF"/>
<path d="M53.0013 98.7158C53.0013 97.0583 53.0103 96.4315 53.0013 95.8106C52.8352 86.0718 54.7345 76.6479 57.5684 67.4048C59.2095 62.0555 61.5919 56.9909 64.1254 51.9851C67.0967 46.1174 70.8606 40.8073 74.9219 35.69C76.4634 33.7461 78.2676 32.0102 79.9556 30.1839C84.5197 25.252 89.6756 20.9996 95.1788 17.1722C101.7 12.6329 108.781 8.95378 116.246 6.22634C123.291 3.64961 130.543 1.92877 137.951 0.827254C138.568 0.737133 139.19 0.6868 139.813 0.676568C145.085 0.596704 150.347 -0.393278 155.629 0.512344C162.682 0.592207 169.566 1.83838 176.327 3.71442C182.637 5.46388 188.775 7.72867 194.588 10.7755C203.043 15.2072 210.823 20.5882 217.605 27.3374C220.691 30.4084 223.778 33.4719 226.504 36.8909C228.05 38.8287 229.922 40.5074 231.601 42.3412C237.161 48.4199 242.882 54.3524 248.273 60.5848C248.679 61.0549 249.116 61.4994 249.542 61.953C252.733 65.3539 256.041 68.6404 259.031 72.2358C260.611 74.1375 262.52 75.7709 264.297 77.5098C264.664 77.8669 265.689 77.8624 266.051 77.4977C268.132 75.4032 270.218 73.3162 272.241 71.1689C273.738 69.5897 275.12 67.9066 276.599 66.3109C281.671 60.8379 286.873 55.478 291.811 49.8861C294.902 46.3872 298.13 43.0254 301.299 39.6048C302.671 38.1251 303.886 36.4976 305.274 35.0315C308.055 32.0961 310.86 29.1788 313.729 26.3369C318.51 21.6159 323.925 17.7177 329.642 14.1961C339.305 8.24706 349.757 4.36835 360.816 2.08998C364.764 1.27779 368.77 0.653974 372.834 0.534932C375.162 0.46863 377.483 0.00601876 379.806 0.00149818C382.13 -0.00302239 384.454 0.453573 386.78 0.509327C394.003 0.678095 400.984 2.16687 407.867 4.1951C416.277 6.66785 424.271 10.1126 431.638 14.8772C436.996 18.343 442.178 22.0649 446.723 26.587C447.826 27.684 448.937 28.775 450.036 29.875C455.9 35.7397 460.771 42.3307 464.867 49.544C470.302 59.1096 473.907 69.323 475.924 80.079C476.722 84.3328 477.384 88.653 477.273 93.038C477.205 95.678 477.273 98.321 477.273 100.964C477.297 109.115 475.754 117.029 473.483 124.807C470.942 133.508 467.293 141.743 462.332 149.345C460.129 152.723 457.651 155.93 455.154 159.106C452.772 162.143 449.542 163.957 445.822 164.954C444.321 165.376 442.763 165.556 441.205 165.489C434.176 165.132 427.427 160.545 425.164 153.266C423.48 147.85 424.283 142.838 427.495 138.197C428.112 137.302 428.784 136.445 429.45 135.584C434.526 129.056 438.24 121.578 440.372 113.593C441.136 110.748 441.596 107.837 441.986 104.903C442.665 99.8228 442.665 94.675 441.986 89.5948C441.349 84.7819 440.339 80.0745 438.595 75.5946C436.339 69.7962 433.44 64.3082 429.562 59.3491C425.444 54.0709 420.52 49.4706 414.973 45.7166C408.649 41.4223 401.576 38.3476 394.119 36.6513C386.456 34.8883 378.766 34.5191 370.955 35.7366C364.274 36.7779 357.887 38.66 351.878 41.6933C343.999 45.6699 337.277 51.1443 331.667 57.9674C331.073 58.6876 330.525 59.4471 329.891 60.1282C324.166 66.2701 318.396 72.3684 312.704 78.539C308.066 83.5659 303.536 88.6892 298.919 93.7341C296.611 96.2581 294.204 98.6932 291.866 101.193C291.126 101.983 290.452 102.839 289.776 103.685C289.46 104.079 289.491 105.033 289.776 105.458C289.934 105.724 290.108 105.981 290.295 106.228C290.698 106.701 291.123 107.156 291.547 107.611C297.284 113.745 303.186 119.729 308.694 126.059C313.084 131.106 318.033 135.637 322.172 140.902C322.46 141.268 322.804 141.589 323.123 141.93C328.86 148.062 334.552 154.232 340.342 160.313C342.767 162.858 344.358 165.815 345.456 169.095C346.263 171.506 346.307 173.917 345.786 176.438C344.969 180.394 343.043 183.581 340.2 186.432C334.392 192.247 322.979 192.347 317.251 186.478C313.125 182.25 308.892 178.126 305.067 173.607C303.361 171.592 301.433 169.766 299.679 167.79C294.517 161.98 289.015 156.48 283.965 150.568C282.855 149.269 281.619 148.079 280.445 146.833C277.782 144.003 275.049 141.244 272.557 138.244C270.674 135.983 268.48 133.976 266.388 131.886C266.227 131.713 266.032 131.575 265.815 131.482C265.598 131.388 265.364 131.341 265.128 131.343C264.891 131.345 264.658 131.396 264.443 131.493C264.227 131.59 264.035 131.732 263.877 131.907C261.493 134.356 259.141 136.839 256.795 139.326C256.263 139.889 255.831 140.548 255.303 141.116C250.654 146.134 245.998 151.145 241.336 156.151C236.254 161.617 231.042 166.967 226.129 172.576C222.743 176.441 219.151 180.098 215.648 183.847C214.8 184.751 213.891 185.609 213.02 186.498C210.755 188.809 207.909 190.043 204.787 190.581C202.324 190.997 199.804 190.924 197.369 190.369C191.295 189.035 186.114 183.035 184.762 177.775C183.734 173.774 184.124 170.09 185.819 166.449C186.876 164.189 188.196 162.117 189.942 160.279C195.728 154.194 201.61 148.189 207.115 141.857C211.504 136.809 216.467 132.29 220.585 127.009C220.871 126.642 221.225 126.329 221.544 125.988C227.281 119.861 233.013 113.726 238.739 107.585C239.372 106.906 239.935 106.16 240.501 105.424C240.803 105.024 240.789 104.068 240.478 103.654C240.024 103.027 239.539 102.424 239.024 101.846C233.625 96.0366 228.048 90.3844 222.857 84.3977C218.373 79.2261 213.338 74.5669 209.044 69.2266C208.074 68.0211 206.911 66.9663 205.845 65.8316C203.395 63.2293 200.931 60.648 198.625 57.9025C193.586 51.8992 187.713 46.8121 180.837 42.9922C174.697 39.5947 168.038 37.2285 161.128 35.9883C157.297 35.3049 153.41 34.982 149.518 35.0239C141.949 35.0616 134.695 36.6046 127.639 39.2431C117.948 42.8731 109.883 48.8388 103.03 56.4696C98.4158 61.6079 95.0173 67.5389 92.3857 73.9054C90.9574 77.3576 89.8055 80.9032 89.1231 84.583C88.812 86.2601 88.5961 87.9538 88.3561 89.6415C88.2896 90.1026 88.3455 90.5818 88.2564 91.0353C87.3762 95.5182 87.7627 99.9726 88.2564 104.478C89.2089 113.473 92.1698 122.14 96.9211 129.842C98.4451 132.373 100.169 134.779 102.077 137.037C104.715 140.109 105.897 143.837 106.003 147.784C106.104 151.239 105.099 154.637 103.134 157.483C99.5497 162.715 94.5085 165.497 88.1266 165.455C83.9384 165.427 80.2168 163.85 77.0839 161.071C75.7979 159.94 74.6216 158.69 73.5707 157.339C64.2235 145.201 57.8175 131.722 54.7919 116.653C53.5387 110.373 52.8171 104.077 53.0013 98.7158Z" fill="#FEFEFF"/>
<path d="M407.2 212.999C407.247 218.216 405.962 221.912 403.193 225.143C398.138 231.045 393.15 237.005 388.156 242.96C384.36 247.48 380.607 252.051 376.816 256.574C374.317 259.552 371.767 262.484 369.245 265.442C367.132 267.927 365.009 270.415 362.912 272.912C357.223 279.704 351.539 286.499 345.86 293.298C344.163 295.323 342.438 297.324 340.727 299.334C336.589 304.18 332.423 308.999 328.316 313.879C322.917 320.304 317.585 326.786 312.199 333.224C309.806 336.087 307.335 338.882 304.928 341.733C300.515 346.957 296.131 352.206 291.719 357.433C289.312 360.284 286.873 363.106 284.454 365.947C283.548 367.01 282.683 368.113 281.75 369.155C280.089 371.005 278.514 372.956 276.682 374.625C273.336 377.67 269.299 379.242 264.754 379.136C260.563 379.038 256.829 377.501 253.722 374.707C251.993 373.154 250.485 371.352 248.927 369.617C247.89 368.462 246.949 367.22 245.95 366.029C241.654 360.906 237.355 355.789 233.053 350.679C230.749 347.944 228.414 345.238 226.108 342.504C223.403 339.296 220.721 336.069 218.019 332.86C215.917 330.362 213.808 327.871 211.691 325.386C205.954 318.639 200.182 311.912 194.47 305.139C190.663 300.618 186.941 296.036 183.162 291.497C181.272 289.228 179.345 286.99 177.425 284.748C174.894 281.798 172.343 278.871 169.817 275.912C167.881 273.662 165.993 271.402 164.087 269.141C160.98 265.46 157.859 261.789 154.767 258.095C150.976 253.565 147.218 249.007 143.427 244.48C141.033 241.617 138.585 238.804 136.18 235.95C132.976 232.144 129.752 228.355 126.614 224.498C123.119 220.199 122.373 215.205 123.564 209.969C125.123 203.123 129.558 198.889 136.295 197.067C140.371 195.962 144.342 196.502 148.096 198.379C150.475 199.558 152.583 201.219 154.286 203.254C158.974 208.857 163.705 214.421 168.401 220.016C172.598 225.016 176.75 230.055 180.961 235.043C185.073 239.911 189.265 244.72 193.368 249.591C197.176 254.112 200.917 258.679 204.707 263.207C207.101 266.071 209.55 268.882 211.954 271.735C216.464 277.081 220.948 282.447 225.465 287.787C227.974 290.754 230.535 293.679 233.061 296.633C234.98 298.878 236.897 301.125 238.786 303.395C242.56 307.937 246.3 312.512 250.093 317.04C253.685 321.33 257.308 325.594 260.963 329.835C261.973 331.007 263.128 332.059 264.239 333.141C264.602 333.495 265.651 333.517 266 333.177C267.108 332.093 268.252 331.037 269.262 329.862C272.616 325.98 275.918 322.056 279.227 318.143C281.24 315.771 283.246 313.395 285.244 311.014C288.148 307.568 291.054 304.123 293.96 300.677C296.064 298.182 298.187 295.704 300.277 293.192C302.464 290.564 304.602 287.896 306.799 285.277C311.594 279.562 316.403 273.857 321.225 268.164C323.737 265.2 326.305 262.287 328.833 259.329C330.752 257.084 332.645 254.808 334.55 252.56C337.658 248.879 340.78 245.208 343.872 241.513C347.663 236.985 351.421 232.43 355.207 227.897C357.3 225.393 359.407 222.9 361.529 220.419C365.664 215.57 369.804 210.724 373.948 205.882C374.753 204.936 375.458 203.908 376.275 202.968C378.508 200.346 381.433 198.401 384.718 197.356C389.087 195.949 393.324 196.347 397.438 198.286C402.243 200.546 405.252 204.369 406.709 209.39C407.146 210.862 407.134 212.455 407.2 212.999Z" fill="#FEFEFF"/>
<path d="M1958.73 324.758C1959.24 338.896 1958.86 352.888 1956.22 366.979C1948.18 409.933 1922.4 436.19 1881.15 447.481C1838.13 459.253 1794.59 460.609 1752.08 445.745C1683.66 421.819 1648.69 369.911 1637.23 301.087C1624.25 223.146 1656.52 128.118 1743.13 93.9195C1797.83 72.3247 1851.9 76.3375 1905.33 97.5525C1923.28 104.683 1937.21 117.788 1946.03 135.346C1954.27 151.729 1952.71 167.894 1940.84 181.607C1929.96 194.187 1915.27 198.646 1899.08 193.096C1886.83 188.898 1874.99 183.468 1863.09 178.29C1820.54 159.774 1777.02 167.127 1749.03 197.716C1720.1 229.339 1715.32 284.457 1738.12 323.471C1758.85 358.929 1802.61 376.49 1845.83 367.075C1863.03 363.329 1872.95 353.152 1874.55 335.816C1875.63 324.098 1874.96 312.229 1875.75 300.472C1877.5 274.262 1890.98 259.968 1914.46 258.761C1935.91 257.658 1955.09 273.537 1958.5 296.499C1959.87 305.73 1958.73 315.328 1958.73 324.758Z" fill="white"/>
<path d="M1981.32 276.912C1981.2 197.638 2004.97 140.252 2066.04 105.409C2130.29 68.7564 2197.14 72.189 2262.72 104.761C2278.21 112.455 2288.91 125.176 2292.9 142.19C2296.58 157.839 2294.9 172.754 2282.23 184.622C2269.63 196.419 2255.14 198.39 2239.55 192.165C2229.69 188.232 2220.34 183.058 2210.57 178.881C2164.69 159.26 2116.96 168.015 2090.51 200.73C2060.29 238.112 2060.34 296.471 2090.63 335.832C2112.62 364.404 2163.26 378.422 2197.35 365.541C2211.33 360.267 2217.12 349.683 2217.94 335.525C2218.75 321.42 2218.02 306.991 2220.84 293.292C2225.84 269.031 2243.06 258.018 2267.81 260.729C2289.42 263.097 2300.5 274.384 2301.67 298.524C2302.7 319.694 2302.65 341.052 2301.07 362.176C2298.49 396.729 2280.47 423.081 2249.7 437.616C2189.34 466.133 2083.36 467.768 2024.75 397.481C1993.13 359.573 1979.03 315.533 1981.32 276.912Z" fill="white"/>
<path d="M1397.34 109.867C1428.88 88.7223 1458.65 76.5153 1493.9 81.5376C1558.76 90.7686 1600.51 130.268 1603.84 195.89C1607.43 266.608 1605.65 337.633 1604.99 408.508C1604.77 432.937 1587.74 448.91 1565.31 450.16C1543.19 451.388 1525.34 436.267 1521.73 412.147C1520.34 402.874 1520.86 393.289 1520.84 383.845C1520.75 330.676 1521.45 277.494 1520.55 224.338C1519.71 174.057 1480.77 150.514 1434.6 171.474C1412.03 181.721 1405.99 201.181 1406.04 223.994C1406.14 277.165 1406.04 330.335 1406 383.504C1406 391.776 1406.4 400.089 1405.73 408.309C1403.6 434.295 1386.15 450.965 1362.45 450.177C1339.9 449.423 1324.06 433.626 1321.89 409.254C1321.26 402.214 1321.6 395.089 1321.6 387.995C1321.58 307.649 1321.59 227.303 1321.63 146.956C1321.63 137.516 1320.95 127.86 1322.62 118.673C1328.29 87.562 1359.53 76.134 1384.19 95.8663C1388.65 99.4376 1392.12 104.243 1397.34 109.867Z" fill="white"/>
<path d="M2614.96 234.827C2614.96 264.335 2614.96 293.841 2614.96 323.346C2614.92 411.158 2560.44 455.82 2470.69 456.1C2453.23 456.155 2435.19 452.725 2418.39 447.674C2365.3 431.71 2334.84 391.401 2332.03 326.774C2329.22 261.979 2330.52 196.968 2331.45 132.07C2331.88 102.869 2350.06 85.0652 2374.3 85.7011C2398.89 86.346 2414.76 103.918 2415.14 133.56C2415.81 185.482 2415.37 237.421 2415.42 289.352C2415.42 297.612 2415.14 305.903 2415.71 314.129C2419.05 361.999 2467.31 387.1 2508.56 362.499C2527.22 351.371 2530.91 333.48 2530.87 313.642C2530.74 259.35 2530.8 205.058 2531.03 150.766C2531.08 140.194 2530.9 129.337 2533.14 119.114C2537.89 97.3913 2555.93 84.2425 2576.83 85.5308C2597.13 86.7815 2613.74 102.472 2614.51 125.093C2615.76 161.638 2614.85 198.254 2614.85 234.839L2614.96 234.827Z" fill="white"/>
<path d="M1149.25 227.539C1149.25 253.492 1149.24 279.445 1149.23 305.398C1149.23 311.296 1149.39 317.219 1148.92 323.087C1138.31 455.876 1030.62 475.976 945.274 440.134C924.088 431.243 910.979 415.248 909.775 391.503C908.417 364.759 926.101 348.628 952.371 354.009C963.672 356.324 974.13 362.749 984.96 367.34C1023.31 383.575 1053.29 368.611 1062.11 327.766C1064.81 315.239 1064.98 302.015 1065.06 289.1C1065.42 236.016 1065.49 182.931 1065.29 129.843C1065.25 111.586 1072.62 97.7379 1088.84 89.4411C1104.15 81.619 1118.98 85.0245 1132.17 94.6805C1145.8 104.659 1149.13 119.622 1149.18 135.516C1149.28 166.19 1149.21 196.861 1149.21 227.534L1149.25 227.539Z" fill="white"/>
<path d="M894.623 231.018C894.623 262.85 895.565 294.714 894.453 326.509C890.687 433.981 783.259 492.277 689.608 437.895C682.574 433.809 675.869 428.531 670.368 422.562C653.499 404.262 651.32 380.672 664.155 364.548C674.74 351.244 693.596 349.204 716.173 358.919C783.312 387.805 810.451 369.926 810.641 296.511C810.769 246.994 810.587 197.474 810.759 147.955C810.79 138.565 810.642 128.918 812.64 119.842C817.482 97.8418 835.572 84.1565 855.846 85.7598C876.681 87.4068 893.053 102.637 894.262 124.938C895.73 151.98 894.85 179.149 894.966 206.265C895.001 214.516 894.966 222.771 894.966 231.024L894.623 231.018Z" fill="white"/>
<path d="M1276.63 268.127C1276.63 308.31 1276.63 348.493 1276.64 388.676C1276.65 400.555 1276.24 412.374 1271.27 423.441C1263.58 440.556 1245.83 451.275 1228.69 449.342C1209.12 447.133 1194.3 432.833 1193.41 411.419C1192.09 379.563 1192.8 347.616 1192.77 315.708C1192.71 260.155 1192.71 204.607 1192.77 149.063C1192.77 140.793 1192.37 132.454 1193.25 124.265C1195.5 103.137 1209.57 88.6003 1228.99 86.4621C1245.76 84.6162 1263.74 95.7337 1271.34 112.794C1276.28 123.882 1276.64 135.699 1276.64 147.573C1276.61 187.76 1276.61 227.945 1276.63 268.127Z" fill="white"/>
</g>
</mask>
<g mask="url(#mask0_213_142)">
<rect width="2615.15" height="537.698" fill="url(#paint0_linear_213_142)"/>
</g>
<defs>
<linearGradient id="paint0_linear_213_142" x1="1307.57" y1="0" x2="1307.57" y2="537.698" gradientUnits="userSpaceOnUse">
<stop stop-color="#9FC1E4"/>
<stop offset="1" stop-color="#95D3CE"/>
</linearGradient>
<clipPath id="clip0_213_142">
<rect width="2615.17" height="537.698" fill="white"/>
</clipPath>
</defs>
</svg>
