<svg id="레이어_1" data-name="레이어 1" xmlns="http://www.w3.org/2000/svg" viewBox="0 0 5670.22 5761.15"><defs><style>.cls-1{fill:#fefffe;}</style></defs><title>jjinggu2</title><path class="cls-1" d="M-2341.53,3656.06c419.83-3.6,829.1-75.8,1220.29-239,324.61-135.46,613.43-323.87,848.47-588.18C-77.06,2608.75,55.08,2356,99.94,2062.56c37.6-246,4.22-484.07-92.27-713.36-70-166.44-168.26-314.74-288.67-448.77-79.59-88.59-79.17-197.22,1.07-273.91,70.44-67.33,176.86-68.38,250-2.22C5,655.87,33.73,693.12,63.24,729.43c184.42,226.91,318.12,479.75,382.29,766.31C529.1,1869,489,2230.43,332,2578.46c-137.62,305.18-346.9,555-605.68,764-417.42,337.23-897.5,533.65-1422.69,627.79-239.85,43-481.58,63.88-724.85,57.69-523.63-13.33-1025.56-121.34-1495.48-358.9-268.32-135.64-512.23-306.53-721-523.94-252.75-263.21-433.78-567.61-507.69-928.31-69.74-340.27-40.62-672.9,91.85-995.39,89.37-217.58,217.15-410.49,374.33-584.42,67.61-74.82,183.32-81.63,258.56-17.44,78.4,66.89,90,182.08,22.11,261.18-95.22,111-184.2,226-251.35,356.48-90,174.84-146,358.77-156.14,556.69-18.61,362.73,100.61,678.19,321.6,960,185.26,236.22,418.9,413.41,681.52,554.35,307.68,165.13,637.13,264,981.56,313.9C-2663.36,3645-2504.08,3655.7-2341.53,3656.06Z" transform="translate(5182.08 1732.11)"/><path class="cls-1" d="M-3575.21-1731.52c324.52,4.3,590.64,131.93,801.93,377.53,47.49,55.21,97.92,107.91,147.14,161.64q112.51,122.79,225.22,245.4c5.87,6.4,11.83,12.71,18,18.8,31.81,31.32,36.66,31.86,67.08,1.35q42.27-42.39,82.63-86.68c121.54-133.33,240.15-269.45,364.73-399.87,154.35-161.59,343.84-264.93,564.3-301.8,302-50.51,580.66,10.45,824.38,200.89C-251.61-1336-118.19-1102-83.9-813.18c33.59,283-41.38,535.79-211.85,762-18.91,25.1-39.84,48-67.72,63.74C-443.15,57.46-539.15,40.3-599.12-29.75c-56.94-66.51-60-164.15-3.08-235.09,66.42-82.78,112.08-174.63,136.5-277.77,88.53-373.91-168.95-757.59-549.7-808.72-243.56-32.72-451.23,42.92-615.12,231.48-79.64,91.63-163.78,179.35-246,268.71-61.09,66.39-123.1,132-183.35,199.11-31.56,35.17-31.29,37.27,0,72.93,49.21,56,99.7,111,150.16,165.91,124.41,135.43,249.62,270.13,373.54,406,103.53,113.53,52.88,280.48-94.69,313.8-62.37,14.09-117.09-4.35-163.63-46-21.87-19.54-40-43.29-59.94-65q-234.64-254.46-469.45-508.77c-21.58-23.34-24.71-23.89-49.26,2.15-57.12,60.59-112.93,122.42-169.45,183.58-117.75,127.42-234.09,256.18-354,381.57-77.64,81.21-197.32,74.64-271.54-9.52-49.32-55.92-59-143-21.47-209.23a299,299,0,0,1,40-54.34q213.15-231.79,427.24-462.73c33-35.68,64.55-72.68,98.54-107.33,19.26-19.64,16.55-33.57-1.06-52.43-62.75-67.2-124-135.8-186.1-203.6-87.89-96-176.72-191.07-263.9-287.66-103.63-114.8-230-190.46-382.49-215.92-448.71-74.91-779.44,268.2-787.09,631.17-3.48,164.87,41.35,311.27,143.2,440.63,50.21,63.77,65.8,133.26,29.65,209-54.7,114.55-201.18,141.23-293.18,53.64-48.28-46-83.36-102.13-116.38-159.23-235.5-407.14-168.65-949.12,195.23-1282.15C-4085.79-1638.69-3849-1733.44-3575.21-1731.52Z" transform="translate(5182.08 1732.11)"/><path class="cls-1" d="M-2721.53,1517.16c-1,22.86-15.88,44.83-38.49,63.43-48.21,39.67-94.43,81.86-143.89,119.86-35.48,27.26-44,60-34.19,100.87,14.57,60.72,27.85,121.78,44,182.08,11.47,42.86,7.17,80.48-31,106.42-36.95,25.11-75,19.86-112.09-3.85-52.62-33.63-106.63-65.09-158.87-99.28-34.92-22.86-66.67-22.25-101.32.64-47.75,31.54-97.13,60.62-145.8,90.75-8.86,5.48-17.3,11.8-26.64,16.26-33.49,16-67.64,18-98.61-4.28s-41.26-55-34-92.22c5-25.5,12.11-50.6,18.32-75.87,8.29-33.69,15-67.86,25.26-100.94,16.82-54.32,7.72-96-42.39-130.82-48.19-33.52-90.69-75.22-135.65-113.37-30.92-26.25-42.78-59.65-29.71-97.94,12.89-37.73,41.17-58.88,82-61.55,60.54-4,121-9.25,181.62-11.93,52.64-2.32,86.64-24.12,104.33-76.36,19.44-57.39,45.07-112.7,68.53-168.69,16.45-39.25,44.85-59.49,89.15-57.7,40.3,1.63,64,23.42,78.53,57.91,22.18,52.77,46.64,104.89,64.2,159.21,20.29,62.75,61,86.72,124.46,86.93,55.36.18,110.74,6.2,166,10.89C-2755.35,1422-2720,1460.77-2721.53,1517.16Z" transform="translate(5182.08 1732.11)"/><path class="cls-1" d="M-1804.43,2006.82c1.28-6.68,3.62-22.08,7.24-37.18,12.94-54,24.4-108.34,40.09-161.49,13-44.18,2.42-77.05-33-105.42-40.58-32.47-79.42-67.1-118.95-100.87q-17.79-15.19-35.22-30.81c-29.76-26.54-33.27-60.35-22.17-95.37,11.7-36.91,40.29-55.15,78.38-58.1,51.82-4,103.68-7.41,155.52-11.2,19-1.39,38-2.69,56.95-4.83,32.15-3.64,53.15-20.08,65.2-51.35,24.32-63.07,51.28-125.12,76.66-187.79,14.25-35.19,37.51-57.31,77.27-59.4,40.51-2.12,71.7,11.87,88.22,50.3,21.23,49.37,41.29,99.24,61.83,148.91,6,14.41,12.51,28.63,17.63,43.35,12.22,35.16,37.12,53.12,73.6,56.1q90.65,7.41,181.3,14.67c8.64.69,17.36.45,26,1.36,37.72,4,65.27,22.45,78.72,58.61,13.63,36.69,3.92,68.87-24.24,94.39-38.52,34.9-78.46,68.24-117.89,102.14-7.89,6.77-15.9,13.47-24.37,19.48-44.88,31.88-60,71.26-42,126.23,17.79,54.2,28,110.87,42.27,166.25,10.43,40.35,5.65,77.58-28.57,103.36-35.7,26.9-74.85,22.69-112.07-.11-48.79-29.89-99.26-57.5-145.49-91-48.31-35-90.31-32.07-137.39,1.79-43.53,31.31-90.92,57.26-136.8,85.26-10.31,6.3-20.85,13-32.2,16.68C-1750,2121.21-1805.3,2080.55-1804.43,2006.82Z" transform="translate(5182.08 1732.11)"/></svg>