<svg id="레이어_1" data-name="레이어 1" xmlns="http://www.w3.org/2000/svg" viewBox="0 0 17321.38 3568.34"><defs><style>.cls-1{fill:#fefeff;}.cls-2{fill:#fff;}</style></defs><title>jjinggu1_en</title><path class="cls-1" d="M-5438.45-1462.51c33-.4,66-.75,99-1.23,16.5-.25,33-.45,49.28-3.79a70.93,70.93,0,0,1,15.38-1.42c32.11.58,63.78-4.42,95.41-8.45,40.85-5.19,81.48-12.38,122-19.66,57.87-10.41,114.9-24.57,171.57-40.19,45.75-12.62,90.65-27.89,135.15-44.35,34.82-12.88,69.31-26.53,103.27-41.59q66.53-29.49,130.06-64.85c37.89-21,75-43.29,110.79-67.76,46-31.44,90.39-64.79,132.79-101.07a1238.62,1238.62,0,0,0,106.59-103.22c46.12-50.2,86.64-104.84,122.26-163.06a910.11,910.11,0,0,0,87-187.67c13-39.12,23.73-79,29.35-120,3.36-24.49,6.94-48.95,10.14-73.46a196.85,196.85,0,0,0,1.25-21.6c.31-15.47.24-30.94.55-46.41.84-42.42-4.22-84.27-10.87-126.08A822.42,822.42,0,0,0-3964.27-2842c-19.56-55.67-46-108.14-75.07-159.3-23-40.41-50.07-78.12-78.86-114.55-14.69-18.58-30.45-36.33-46.06-54.16-11.67-13.33-21.36-27.6-27.16-44.55-12.23-35.69-6.75-68.72,12.52-100.61,15.39-25.49,38.51-39.86,65.94-47.88,42.42-12.4,79.36-1.26,110.83,28.85,14.9,14.26,27.92,30.26,41.31,46,34.18,40.13,64.91,82.69,93.81,126.67,18.7,28.47,35.62,57.94,51.91,87.85,32.16,59.06,58,120.77,79,184.54a918.42,918.42,0,0,1,36,150.19c3.23,21.38,6.62,42.75,9.66,64.17,1,7.12,1.36,14.36,1.7,21.57,1.07,22.64,1.47,45.27,4.12,67.89,1.78,15.19,0,30.85-.65,46.28-.29,7.19-2.4,14.36-2.22,21.5.81,32.12-4.19,63.78-8.09,95.43-3.14,25.52-8.71,50.79-14.07,76-14.86,69.82-37.58,137.06-66,202.55-23.07,53.13-51,103.48-81.48,152.63-28.91,46.55-62,89.89-96,132.68-13.51,17-28,33-42.72,48.88-13.34,14.32-25.88,29.41-39.49,43.46-30.88,31.87-64.89,60.3-98.22,89.52-57.56,50.48-119.82,94.42-184,135.84-39.85,25.73-80.6,50-123,71.46-49.68,25.17-99.27,50.53-150.79,71.81-25.73,10.62-51.43,21.39-77.56,31-84.28,30.9-169.89,57.58-257.45,77.65-49.22,11.29-98.56,22-148.63,29-38.76,5.42-77.47,11.14-116.23,16.56-6.11.86-12.34.89-18.51,1.26s-12.48,0-18.52,1.14c-27.53,5.14-55.39,5.09-83.21,5.83a73.32,73.32,0,0,0-9.27.4c-41,6.39-82.32,4.08-123.52,4.57q-29.4.35-58.79-.46c-12.34-.33-24.65-1.73-37-2.59-10.28-.71-20.56-1.56-30.85-2-25.74-1-51.6-.15-77-5.56a39.52,39.52,0,0,0-6.16-.56c-35.05-1.65-69.62-7.26-104.35-11.79q-61.36-8-122-20.13c-53.58-10.73-106.91-22.65-159.39-38-34.62-10.14-69.41-19.86-103.57-31.44-48.81-16.54-97.11-34.6-144.64-54.66-49.45-20.87-97.54-44.57-145.21-69.15-82.68-42.63-160.8-92.53-235.5-147.91-29-21.5-56.64-44.68-84.75-67.3a29.84,29.84,0,0,1-2.33-2c-28.72-28.15-60.76-52.72-88.3-82.15-21.78-23.27-78.87-87-101.63-116.4-15.77-20.4-31.39-40.92-45.94-62.14-18.06-26.35-35.77-53.06-51.55-80.81-19.85-34.91-39.16-70.12-55.42-107.06-17.89-40.67-34.28-81.79-47.61-124.12a1049,1049,0,0,1-37.26-162.64c-4.48-30.48-9.11-61.19-8.34-92.3.2-8.19-1-16.46-2.1-24.62a218.7,218.7,0,0,1,.14-61.64,178.7,178.7,0,0,0,1.88-21.55c2-83,17.82-163.64,40.46-243.29,15-52.77,35.64-103.2,57.94-153.16,35.52-79.56,81.91-152.54,134.18-221.82,24.79-32.87,50.08-65.53,79.38-94.76,11.11-11.08,23.2-20.32,37.66-26.53,12.47-5.35,25.73-7.37,38.87-9.91a21.62,21.62,0,0,1,6.17-.2c29.31,2.91,56.74,10.73,79.09,31.21,17.32,15.85,27.66,36,33.11,58.36,9.78,40.11-.92,75.53-27.8,106.13-21.79,24.79-43,50-63.13,76.16-57.06,74.1-101.34,155.4-134.85,242.49-18.16,47.23-30.54,96.26-39.68,146.06-3.35,18.26-4.72,36.81-7.46,55.08-6.31,42.14-4.83,84.34-4.41,126.58.1,10.26,1.43,20.54,2.71,30.75,2.55,20.44,5.42,40.84,8.21,61.24,8.28,60.68,26.52,118.62,48.87,175.33,33.13,84.08,79.39,160.62,134.2,232.27,41.5,54.26,88.36,103.58,138.75,149.4a1339.38,1339.38,0,0,0,140.67,111.06,1514.33,1514.33,0,0,0,219.72,126.2q61.62,28.8,125.26,53.11c82.12,31.18,166.08,55.92,251.63,75.44,41.19,9.39,82.62,17.62,124.4,24.15,31.56,4.93,63.13,9.31,94.91,12.77,23.59,2.57,47.23,3.86,70.78,6.22,27.73,2.78,55.39,5.28,83.27,5.21,26.82-.06,53.63,0,80.45,0Z" transform="translate(7195.95 4798.11)"/><path class="cls-1" d="M-6844.9-4143c0-11,.06-15.16,0-19.28-1.1-64.63,11.48-127.17,30.25-188.51,10.87-35.5,26.65-69.11,43.43-102.33,19.68-38.94,44.61-74.18,71.51-108.14,10.21-12.9,22.16-24.42,33.34-36.54,30.23-32.73,64.38-60.95,100.83-86.35A611.09,611.09,0,0,1-6426-4756.79c46.66-17.1,94.69-28.52,143.76-35.83a96,96,0,0,1,12.33-1c34.92-.53,69.77-7.1,104.76-1.09,46.71.53,92.31,8.8,137.09,21.25,41.79,11.61,82.45,26.64,120.95,46.86,56,29.41,107.53,65.12,152.45,109.91,20.44,20.38,40.89,40.71,58.94,63.4,10.24,12.86,22.64,24,33.76,36.17,36.83,40.34,74.72,79.71,110.43,121.07,2.69,3.12,5.58,6.07,8.4,9.08,21.14,22.57,43.05,44.38,62.85,68.24,10.47,12.62,23.11,23.46,34.88,35,2.43,2.37,9.22,2.34,11.62-.08,13.78-13.9,27.6-27.75,41-42,9.91-10.48,19.07-21.65,28.86-32.24,33.6-36.32,68.05-71.89,100.76-109,20.47-23.22,41.85-45.53,62.84-68.23,9.09-9.82,17.14-20.62,26.33-30.35,18.42-19.48,37-38.84,56-57.7,31.67-31.33,67.53-57.2,105.4-80.57,64-39.48,133.23-65.22,206.48-80.34,26.15-5.39,52.68-9.53,79.6-10.32,15.42-.44,30.79-3.51,46.18-3.54s30.78,3,46.19,3.37c47.84,1.12,94.08,11,139.67,24.46,55.7,16.41,108.65,39.27,157.44,70.89,35.49,23,69.81,47.7,99.92,77.71,7.3,7.28,14.66,14.52,21.94,21.82,38.84,38.92,71.1,82.66,98.23,130.53,36,63.48,59.88,131.26,73.24,202.64,5.28,28.23,9.67,56.9,8.93,86-.45,17.52,0,35.06,0,52.6.16,54.09-10.06,106.61-25.1,158.23-16.83,57.74-41,112.39-73.86,162.84-14.59,22.42-31,43.7-47.54,64.78-15.78,20.15-37.17,32.19-61.81,38.81a97.46,97.46,0,0,1-30.58,3.55c-46.56-2.37-91.26-32.81-106.25-81.12-11.15-35.94-5.83-69.2,15.44-100,4.09-5.94,8.54-11.63,12.95-17.34a410.47,410.47,0,0,0,72.34-145.94c5.06-18.88,8.11-38.2,10.69-57.67a383.93,383.93,0,0,0,0-101.59c-4.22-31.94-10.91-63.18-22.46-92.91-14.94-38.48-34.14-74.9-59.83-107.81a424.11,424.11,0,0,0-96.63-90.47,405.82,405.82,0,0,0-138.12-60.16c-50.76-11.7-101.69-14.15-153.43-6.07-44.25,6.91-86.55,19.4-126.35,39.53-52.19,26.39-96.71,62.72-133.87,108-3.93,4.78-7.56,9.82-11.76,14.34-37.92,40.76-76.14,81.23-113.84,122.18-30.72,33.36-60.72,67.36-91.3,100.84-15.29,16.75-31.23,32.91-46.72,49.5-4.9,5.24-9.36,10.92-13.84,16.54-2.09,2.61-1.89,8.94,0,11.76a54.31,54.31,0,0,0,3.44,5.11c2.67,3.14,5.48,6.16,8.29,9.18,38,40.71,77.09,80.42,113.57,122.43,29.08,33.49,61.86,63.56,89.27,98.5,1.91,2.43,4.19,4.56,6.3,6.82,38,40.7,75.7,81.64,114.05,122,16.06,16.89,26.6,36.51,33.87,58.28,5.35,16,5.64,32,2.19,48.73-5.41,26.25-18.17,47.4-37,66.32-38.47,38.59-114.06,39.26-152,.31-27.33-28.06-55.37-55.43-80.7-85.42-11.3-13.37-24.07-25.49-35.69-38.6-34.19-38.56-70.63-75.06-104.08-114.29-7.35-8.62-15.54-16.52-23.31-24.79-17.64-18.78-35.74-37.09-52.25-57-12.47-15-27-28.32-40.86-42.19a11.24,11.24,0,0,0-16.63.14c-15.79,16.25-31.37,32.73-46.91,49.23-3.52,3.74-6.38,8.11-9.88,11.88q-46.19,49.95-92.51,99.78c-33.66,36.27-68.18,71.78-100.72,109-22.43,25.65-46.22,49.92-69.42,74.8-5.62,6-11.64,11.69-17.41,17.59-15,15.34-33.85,23.53-54.53,27.1a126.16,126.16,0,0,1-49.13-1.41c-40.23-8.85-74.55-48.67-83.5-83.58-6.81-26.55-4.23-51,7-75.16,7-15,15.74-28.75,27.31-40.95,38.32-40.38,77.28-80.23,113.74-122.25,29.07-33.5,61.94-63.49,89.22-98.54,1.89-2.43,4.24-4.51,6.35-6.77q57-61,113.89-122.13c4.19-4.51,7.92-9.46,11.67-14.34,2-2.66,1.91-9-.15-11.75a153.52,153.52,0,0,0-9.63-12c-35.76-38.55-72.7-76.06-107.08-115.79-29.7-34.32-63.05-65.24-91.49-100.68-6.43-8-14.13-15-21.19-22.53-16.23-17.27-32.55-34.4-47.82-52.62-33.38-39.84-72.28-73.6-117.82-98.95a424,424,0,0,0-130.54-46.48,411.86,411.86,0,0,0-76.9-6.4c-50.13.25-98.18,10.49-144.91,28-64.19,24.09-117.61,63.68-163,114.32-30.56,34.1-53.07,73.46-70.5,115.71-9.46,22.91-17.09,46.44-21.61,70.86-2.06,11.13-3.49,22.37-5.08,33.57-.44,3.06-.07,6.24-.66,9.25-5.83,29.75-3.27,59.31,0,89.21A401.54,401.54,0,0,0-6554-3936.44a368,368,0,0,0,34.15,47.75c17.47,20.39,25.3,45.13,26,71.32a107.9,107.9,0,0,1-19,64.37c-23.74,34.72-57.13,53.18-99.4,52.9-27.74-.18-52.39-10.65-73.14-29.09a180.56,180.56,0,0,1-23.27-24.77c-61.91-80.55-104.34-170-124.38-270C-6841.34-4065.64-6846.12-4107.42-6844.9-4143Z" transform="translate(7195.95 4798.11)"/><path class="cls-1" d="M-4498.89-3384.58c.31,34.62-8.2,59.15-26.54,80.59-33.48,39.17-66.52,78.72-99.6,118.24-25.14,30-50,60.33-75.11,90.35-16.55,19.76-33.44,39.22-50.14,58.85-14,16.49-28.06,33-41.95,49.57q-56.52,67.61-112.94,135.29c-11.24,13.44-22.67,26.72-34,40.06-27.41,32.16-55,64.14-82.2,96.52-35.76,42.64-71.08,85.66-106.75,128.38-15.85,19-32.22,37.55-48.16,56.47-29.23,34.67-58.27,69.5-87.49,104.19-15.94,18.92-32.1,37.65-48.12,56.5-6,7.06-11.73,14.38-17.91,21.29-11,12.28-21.43,25.23-33.57,36.3-22.16,20.21-48.9,30.64-79,29.94-27.76-.65-52.49-10.85-73.07-29.39-11.45-10.31-21.44-22.27-31.76-33.78-6.87-7.67-13.1-15.91-19.72-23.81q-42.68-51-85.42-101.87c-15.26-18.15-30.73-36.11-46-54.25-17.92-21.29-35.68-42.71-53.58-64q-20.88-24.87-41.91-49.6c-38-44.78-76.23-89.42-114.06-134.37-25.22-30-49.87-60.41-74.9-90.53-12.52-15.06-25.28-29.91-38-44.79-16.76-19.58-33.66-39-50.39-58.64C-6084-2982-6096.51-2997-6109.13-3012c-20.58-24.43-41.25-48.79-61.73-73.31-25.11-30.06-50-60.31-75.11-90.35-15.86-19-32.07-37.67-48-56.61-21.22-25.26-42.58-50.4-63.36-76-23.15-28.53-28.09-61.67-20.2-96.42,10.32-45.43,39.7-73.53,84.32-85.62,27-7.33,53.3-3.75,78.16,8.71a126.94,126.94,0,0,1,41,32.35c31.05,37.18,62.39,74.11,93.49,111.24,27.8,33.18,55.3,66.62,83.19,99.72,27.24,32.31,55,64.22,82.18,96.55,25.22,30,50,60.31,75.1,90.36,15.86,19,32.08,37.66,48,56.59,29.87,35.48,59.57,71.09,89.49,106.53,16.62,19.69,33.58,39.1,50.31,58.7,12.71,14.9,25.41,29.81,37.92,44.88,25,30.14,49.77,60.5,74.89,90.55q35.69,42.7,72,84.91c6.69,7.78,14.34,14.76,21.7,21.94,2.4,2.35,9.35,2.5,11.66.24,7.34-7.19,14.92-14.2,21.61-22,22.21-25.76,44.08-51.8,66-77.77q20-23.61,39.85-47.31,28.86-34.3,57.73-68.6c13.94-16.56,28-33,41.84-49.67,14.49-17.44,28.65-35.15,43.2-52.53q47.64-56.89,95.55-113.57c16.64-19.67,33.65-39,50.39-58.63,12.71-14.9,25.25-30,37.87-44.92,20.58-24.43,41.26-48.79,61.74-73.31,25.11-30.05,50-60.28,75.08-90.36q20.79-24.93,41.87-49.63,41.08-48.27,82.26-96.47c5.33-6.28,10-13.1,15.41-19.34a122,122,0,0,1,55.92-37.24c28.94-9.34,57-6.7,84.25,6.17,31.83,15,51.76,40.37,61.41,73.69C-4499.25-3398.76-4499.33-3388.19-4498.89-3384.58Z" transform="translate(7195.95 4798.11)"/><path class="cls-2" d="M5777.55-2642.91c3.37,93.82.86,186.68-16.61,280.19-53.25,285.06-224,459.31-497.24,534.24-284.95,78.12-573.33,87.12-854.87-11.52-453.18-158.78-684.78-503.26-760.69-960-86-517.24,127.72-1147.88,701.42-1374.83,362.29-143.31,720.4-116.68,1074.27,24.11,118.93,47.32,211.17,134.29,269.63,250.81,54.55,108.72,44.24,216-34.38,307-72.1,83.49-169.41,113.08-276.63,76.25-81.13-27.86-159.57-63.9-238.35-98.26C4862.28-3737.8,4574-3689,4388.61-3486c-191.62,209.86-223.29,575.64-72.24,834.55,137.29,235.31,427.16,351.85,713.42,289.37,113.92-24.86,179.61-92.4,190.21-207.45,7.16-77.76,2.73-156.53,7.94-234.55,11.62-173.94,100.88-268.8,256.39-276.81,142.1-7.32,269.14,98.06,291.72,250.44C5785.12-2769.19,5777.55-2705.49,5777.55-2642.91Z" transform="translate(7195.95 4798.11)"/><path class="cls-2" d="M5927.17-2960.43c-.82-526.09,156.62-906.92,561.14-1138.15,425.55-243.24,868.31-220.46,1302.69-4.3,102.6,51.06,173.45,135.48,199.92,248.39,24.34,103.85,13.21,202.83-70.72,281.59-83.42,78.29-179.39,91.37-282.68,50.06-65.27-26.1-127.2-60.44-191.89-88.16-303.9-130.21-620.05-72.11-795.26,145-200.17,248.08-199.81,635.37.84,896.58,145.64,189.61,481,282.64,706.84,197.16,92.55-35,130.93-105.24,136.33-199.2,5.38-93.6.58-189.36,19.27-280.27,33.11-161,147.17-234.09,311.1-216.1,143.13,15.72,216.51,90.62,224.26,250.82,6.79,140.49,6.44,282.23-4,422.42-17.08,229.3-136.43,404.18-340.21,500.64-399.8,189.25-1101.77,200.1-1490-266.35C6005.39-2411.87,5912-2704.13,5927.17-2960.43Z" transform="translate(7195.95 4798.11)"/><path class="cls-2" d="M2059.2-4069c208.92-140.32,406.12-221.33,639.59-188,429.58,61.26,706.13,323.39,728.18,758.88,23.77,469.31,12,940.65,7.63,1411C3433.1-1925,3320.36-1819,3171.76-1810.7c-146.5,8.15-264.73-92.2-288.63-252.27-9.19-61.54-5.79-125.15-5.9-187.82-.58-352.85,4-705.78-1.91-1058.54-5.58-333.68-263.47-489.92-569.3-350.82-149.47,68-189.51,197.14-189.2,348.54.72,352.86,0,705.71-.21,1058.56,0,54.89,2.65,110.06-1.81,164.61-14.1,172.45-129.68,283.08-286.67,277.85-149.32-5-254.28-109.84-268.67-271.58-4.15-46.72-1.88-94-1.89-141.08q-.15-799.8.18-1599.61c0-62.65-4.49-126.73,6.58-187.7,37.52-206.46,244.49-282.3,407.79-151.35C2001.67-4138.21,2024.65-4106.32,2059.2-4069Z" transform="translate(7195.95 4798.11)"/><path class="cls-2" d="M10124.07-3239.72q0,293.73,0,587.44c-.29,582.75-361.14,879.14-955.6,881-115.65.36-235.15-22.4-346.41-55.92-351.63-105.94-553.4-373.45-572-802.33-18.61-430-10-861.44-3.79-1292.12,2.8-193.79,123.24-311.94,283.79-307.72,162.87,4.28,268,120.89,270.51,317.61,4.41,344.57,1.52,689.25,1.85,1033.88,0,54.82-1.88,109.84,1.92,164.43,22.09,317.68,341.74,484.26,615,321,123.58-73.85,148-192.58,147.73-324.23q-1.24-540.45,1.09-1080.9c.3-70.16-.88-142.21,13.93-210.05,31.47-144.16,151-231.42,289.38-222.87,134.5,8.3,244.49,112.43,249.61,262.55,8.27,242.52,2.22,485.52,2.22,728.31Z" transform="translate(7195.95 4798.11)"/><path class="cls-2" d="M416-3288.09q0,258.35-.08,516.7c0,39.14,1,78.45-2.08,117.39C343.53-1772.77-369.73-1639.38-935-1877.24c-140.32-59-227.15-165.15-235.12-322.73-9-177.48,108.13-284.53,282.13-248.82,74.85,15.36,144.12,58,215.85,88.47,254,107.74,452.56,8.43,511-262.63,17.91-83.13,19-170.89,19.53-256.6q3.54-528.42,1.53-1056.88c-.27-121.16,48.53-213.06,156-268.12,101.41-51.91,199.63-29.31,287,34.77,90.25,66.22,112.33,165.52,112.65,271,.62,203.56.18,407.1.18,610.66Z" transform="translate(7195.95 4798.11)"/><path class="cls-2" d="M-1270.48-3265c0,211.25,6.24,422.71-1.13,633.71-24.94,713.22-736.48,1100.09-1356.77,739.19-46.59-27.11-91-62.14-127.44-101.75-111.73-121.45-126.16-278-41.15-385,70.11-88.29,195-101.83,344.54-37.36,444.69,191.7,624.44,73.05,625.7-414.16.85-328.61-.36-657.24.78-985.86.21-62.32-.77-126.34,12.46-186.57,32.07-146,151.89-236.82,286.17-226.18,138,10.93,246.44,112,254.45,260,9.72,179.46,3.89,359.76,4.66,539.71.23,54.76,0,109.54,0,164.31Z" transform="translate(7195.95 4798.11)"/><path class="cls-2" d="M1259.7-3018.73q0,400,.08,800c.07,78.83-2.66,157.27-35.57,230.71-50.9,113.58-168.52,184.72-282,171.89-129.66-14.66-227.77-109.56-233.67-251.67-8.78-211.41-4.07-423.42-4.27-635.17q-.54-553,0-1105.91c0-54.88-2.63-110.22,3.16-164.57,14.93-140.21,108.1-236.68,236.75-250.87,111.09-12.25,230.16,61.53,280.5,174.75,32.71,73.58,35.12,152,35.07,230.8Q1259.52-3418.73,1259.7-3018.73Z" transform="translate(7195.95 4798.11)"/></svg>