<svg width="150" height="150" viewBox="0 0 150 150" fill="none" xmlns="http://www.w3.org/2000/svg">
<mask id="mask0_207_314" style="mask-type:alpha" maskUnits="userSpaceOnUse" x="0" y="0" width="150" height="150">
<g clip-path="url(#clip0_207_314)">
<path d="M59.6591 98.0223V51.9776L98.8636 75.001L59.6591 98.0223ZM146.865 37.4894C145.14 30.7838 140.057 25.5035 133.604 23.7114C121.907 20.4545 75 20.4545 75 20.4545C75 20.4545 28.0937 20.4545 16.3959 23.7114C9.94227 25.5035 4.85928 30.7838 3.13443 37.4894C0 49.6428 0 75 0 75C0 75 0 100.357 3.13443 112.511C4.85928 119.216 9.94227 124.496 16.3959 126.289C28.0937 129.545 75 129.545 75 129.545C75 129.545 121.907 129.545 133.604 126.289C140.057 124.496 145.14 119.216 146.865 112.511C150 100.357 150 75 150 75C150 75 150 49.6428 146.865 37.4894Z" fill="white"/>
</g>
</mask>
<g mask="url(#mask0_207_314)">
<rect width="150" height="150" fill="white"/>
</g>
<defs>
<clipPath id="clip0_207_314">
<rect width="150" height="109.091" fill="white" transform="translate(0 20.4546)"/>
</clipPath>
</defs>
</svg>
