<svg width="2616" height="538" viewBox="0 0 2616 538" fill="none" xmlns="http://www.w3.org/2000/svg">
<mask id="mask0_213_128" style="mask-type:alpha" maskUnits="userSpaceOnUse" x="0" y="0" width="2616" height="538">
<g clip-path="url(#clip0_213_128)">
<path d="M265.577 503.19C304.832 502.854 343.093 496.115 379.667 480.883C410.015 468.241 437.019 450.656 458.994 425.986C477.293 405.445 489.643 381.852 493.84 354.468C497.357 331.507 494.236 309.29 485.215 287.889C478.665 272.356 469.482 258.514 458.225 246.004C450.783 237.735 450.827 227.598 458.325 220.44C464.911 214.155 474.86 214.057 481.701 220.234C484.966 223.179 487.65 226.656 490.409 230.044C507.652 251.223 520.152 274.822 526.151 301.565C533.964 336.4 530.211 370.143 515.537 402.617C502.67 431.103 483.104 454.414 458.909 473.926C419.883 505.401 374.997 523.733 325.893 532.52C303.467 536.532 280.867 538.481 258.122 537.904C209.166 536.66 162.239 526.578 118.303 504.408C93.2156 491.747 70.4126 475.798 50.8935 455.506C27.2631 430.939 10.3379 402.53 3.42739 368.866C-3.09206 337.108 -0.369853 306.063 12.0153 275.964C20.3707 255.656 32.3181 237.653 47.0132 221.419C53.3349 214.436 64.1528 213.801 71.1871 219.791C78.5174 226.034 79.5999 236.786 73.2541 244.168C64.3461 254.526 56.0329 265.26 49.7551 277.438C41.3438 293.757 36.1047 310.924 35.155 329.396C33.4157 363.249 44.5627 392.698 65.2248 418.991C82.5441 441.037 104.388 457.576 128.94 470.729C157.707 486.142 188.507 495.366 220.71 500.026C235.487 502.162 250.379 503.155 265.577 503.19Z" fill="#FEFFFE"/>
<path d="M150.233 0.35739C180.58 0.758305 205.455 12.6697 225.209 35.5927C229.65 40.7459 234.365 45.6638 238.967 50.6783C245.979 58.3148 252.997 65.9513 260.023 73.5878C260.573 74.1906 261.13 74.7739 261.708 75.3406C264.681 78.2646 265.135 78.3143 267.979 75.4672C270.614 72.8296 273.189 70.1333 275.704 67.3781C287.067 54.9331 298.157 42.2289 309.804 30.0568C324.236 14.9757 341.951 5.33869 362.563 1.88871C390.797 -2.82431 416.852 2.86537 439.639 20.6383C460.973 37.2778 473.447 59.1111 476.652 86.0719C479.793 112.484 472.784 136.078 456.845 157.194C455.077 159.536 453.122 161.678 450.514 163.143C443.065 167.33 434.089 165.727 428.483 159.191C423.159 152.983 422.872 143.87 428.194 137.249C434.404 129.523 438.673 120.95 440.955 111.325C449.232 76.4273 425.16 40.6177 389.562 35.8444C366.791 32.7924 347.375 39.8506 332.051 57.4502C324.606 66.002 316.74 74.1891 309.051 82.5285C303.339 88.7261 297.541 94.8453 291.908 101.112C288.958 104.395 288.983 104.591 291.908 107.919C296.508 113.149 301.23 118.276 305.949 123.404C317.575 136.043 329.287 148.616 340.872 161.298C350.553 171.893 345.816 187.475 332.02 190.586C326.189 191.9 321.072 190.179 316.72 186.295C314.676 184.469 312.985 182.254 311.117 180.231C296.492 164.399 281.861 148.573 267.225 132.754C265.208 130.577 264.915 130.524 262.62 132.955C257.281 138.598 252.065 144.369 246.78 150.071C235.772 161.962 224.888 173.981 213.686 185.684C206.429 193.263 195.239 192.649 188.299 184.795C183.688 179.576 182.788 171.444 186.292 165.268C187.341 163.442 188.594 161.74 190.027 160.196C203.314 145.772 216.629 131.376 229.972 117.009C233.053 113.678 236.011 110.226 239.181 106.99C240.983 105.158 240.729 103.858 239.082 102.096C233.216 95.825 227.489 89.4224 221.683 83.0952C213.466 74.1394 205.162 65.262 197.01 56.2474C187.32 45.5327 175.507 38.4715 161.249 36.0946C119.296 29.1042 88.3764 61.1262 87.6608 95.0036C87.3347 110.391 91.5259 124.055 101.048 136.128C105.743 142.079 107.201 148.565 103.821 155.631C98.7067 166.321 85.0111 168.811 76.4111 160.636C71.8967 156.347 68.6157 151.105 65.5296 145.777C43.5118 107.776 49.761 57.1924 83.782 26.1049C102.496 9.02078 124.635 0.178033 150.233 0.35739Z" fill="#FEFFFE"/>
<path d="M230.049 303.562C229.95 305.695 228.564 307.746 226.449 309.483C221.942 313.184 217.621 317.123 212.997 320.669C209.675 323.213 208.884 326.273 209.8 330.083C211.159 335.75 212.405 341.449 213.913 347.077C214.985 351.077 214.583 354.589 211.014 357.009C207.56 359.353 204.003 358.863 200.534 356.651C195.615 353.511 190.569 350.575 185.681 347.384C182.416 345.252 179.448 345.307 176.208 347.445C171.743 350.388 167.128 353.101 162.576 355.914C161.748 356.425 160.959 357.015 160.086 357.431C156.955 358.926 153.761 359.11 150.867 357.032C147.973 354.953 147.008 351.897 147.687 348.426C148.152 346.044 148.82 343.702 149.401 341.342C150.175 338.198 150.805 335.012 151.762 331.92C153.336 326.852 152.484 322.965 147.799 319.712C143.294 316.583 139.32 312.692 135.116 309.13C132.225 306.681 131.117 303.564 132.338 299.99C133.546 296.468 136.188 294.494 140.008 294.245C145.669 293.876 151.332 293.381 156.989 293.133C161.911 292.914 165.09 290.881 166.744 286.005C168.556 280.649 170.957 275.486 173.151 270.261C174.689 266.597 177.343 264.708 181.486 264.876C185.253 265.026 187.473 267.061 188.827 270.28C190.902 275.204 193.189 280.077 194.83 285.14C196.727 290.997 200.531 293.234 206.467 293.253C211.642 293.27 216.821 293.832 221.988 294.269C226.885 294.685 230.192 298.299 230.049 303.562Z" fill="#FEFFFE"/>
<path d="M315.792 349.264C315.911 348.64 316.132 347.202 316.47 345.797C317.678 340.763 318.75 335.685 320.217 330.725C321.437 326.602 320.444 323.534 317.128 320.886C313.334 317.855 309.703 314.624 306.007 311.471C304.899 310.526 303.802 309.564 302.714 308.596C299.933 306.119 299.604 302.964 300.641 299.695C301.735 296.25 304.415 294.548 307.97 294.269C312.815 293.895 317.664 293.577 322.509 293.225C324.286 293.095 326.065 292.974 327.834 292.772C330.839 292.432 332.803 290.897 333.93 287.979C336.203 282.092 338.725 276.302 341.097 270.452C342.43 267.168 344.606 265.105 348.321 264.909C352.109 264.71 355.025 266.017 356.57 269.604C358.555 274.211 360.43 278.865 362.351 283.502C362.908 284.846 363.521 286.174 363.999 287.547C365.141 290.83 367.472 292.506 370.881 292.783C376.531 293.244 382.181 293.7 387.831 294.151C388.638 294.216 389.454 294.194 390.258 294.28C393.785 294.655 396.361 296.375 397.619 299.749C398.893 303.174 397.984 306.177 395.354 308.559C391.752 311.817 388.018 314.928 384.332 318.092C383.596 318.725 382.847 319.349 382.056 319.91C377.858 322.885 376.442 326.561 378.13 331.691C379.791 336.749 380.743 342.04 382.081 347.208C383.057 350.976 382.61 354.443 379.41 356.854C376.074 359.365 372.412 358.972 368.932 356.843C364.371 354.055 359.653 351.478 355.33 348.355C350.814 345.09 346.887 345.362 342.484 348.522C338.415 351.443 333.984 353.865 329.695 356.479C328.731 357.067 327.745 357.685 326.684 358.036C320.876 359.939 315.71 356.144 315.792 349.264Z" fill="#FEFFFE"/>
<path d="M1958.71 325.072C1959.22 339.214 1958.84 353.21 1956.2 367.304C1948.16 410.268 1922.38 436.531 1881.13 447.823C1838.11 459.598 1794.57 460.955 1752.06 446.088C1683.63 422.157 1648.67 370.237 1637.21 301.397C1624.22 223.438 1656.49 128.387 1743.11 94.1807C1797.81 72.581 1851.88 76.5962 1905.31 97.816C1923.26 104.948 1937.19 118.056 1946.01 135.617C1954.25 152.004 1952.69 168.172 1940.82 181.888C1929.94 194.471 1915.25 198.931 1899.06 193.38C1886.81 189.181 1874.97 183.749 1863.07 178.57C1820.52 160.045 1776.99 167.407 1749 198.003C1720.07 229.631 1715.29 284.763 1738.1 323.785C1758.83 359.252 1802.59 376.815 1845.81 367.4C1863.01 363.652 1872.93 353.473 1874.53 336.133C1875.61 324.413 1874.94 312.541 1875.73 300.782C1877.48 274.565 1890.96 260.267 1914.44 259.059C1935.89 257.958 1955.08 273.84 1958.48 296.807C1959.85 306.04 1958.71 315.641 1958.71 325.072Z" fill="white"/>
<path d="M1981.3 277.215C1981.18 197.924 2004.95 140.526 2066.02 105.675C2130.27 69.0134 2197.12 72.4499 2262.71 105.026C2278.2 112.721 2288.9 125.446 2292.89 142.464C2296.57 158.116 2294.89 173.034 2282.22 184.905C2269.62 196.705 2255.13 198.676 2239.54 192.45C2229.68 188.516 2220.33 183.341 2210.56 179.163C2164.68 159.537 2116.95 168.294 2090.49 201.017C2060.27 238.406 2060.32 296.78 2090.62 336.15C2112.61 364.728 2163.24 378.749 2197.34 365.866C2211.31 360.59 2217.11 350.002 2217.92 335.842C2218.74 321.735 2218.01 307.3 2220.83 293.6C2225.83 269.334 2243.05 258.318 2267.8 261.029C2289.41 263.397 2300.49 274.688 2301.66 298.833C2302.69 320.006 2302.64 341.371 2301.06 362.5C2298.48 397.06 2280.46 423.418 2249.69 437.957C2189.33 466.48 2083.34 468.116 2024.73 397.812C1993.11 359.894 1979.01 315.846 1981.3 277.215Z" fill="white"/>
<path d="M1397.3 110.13C1428.85 88.9808 1458.62 76.771 1493.87 81.7945C1558.73 91.0276 1600.48 130.536 1603.81 196.173C1607.4 266.907 1605.62 337.946 1604.96 408.839C1604.74 433.281 1587.72 449.254 1565.28 450.502C1543.16 451.729 1525.31 436.606 1521.7 412.48C1520.31 403.203 1520.83 393.618 1520.81 384.172C1520.72 330.99 1521.42 277.797 1520.52 224.629C1519.68 174.337 1480.74 150.788 1434.57 171.753C1412 182.002 1405.96 201.466 1406 224.285C1406.11 277.468 1406 330.65 1405.97 383.831C1405.97 392.104 1406.37 400.42 1405.7 408.641C1403.57 434.633 1386.12 451.307 1362.41 450.519C1339.87 449.765 1324.02 433.964 1321.85 409.585C1321.22 402.545 1321.57 395.417 1321.56 388.323C1321.55 307.959 1321.56 227.595 1321.59 147.23C1321.59 137.787 1320.91 128.129 1322.59 118.939C1328.25 87.8218 1359.5 76.3911 1384.15 96.1279C1388.62 99.7015 1392.09 104.508 1397.3 110.13Z" fill="white"/>
<path d="M2614.96 235.122C2614.96 264.636 2614.96 294.149 2614.96 323.661C2614.92 411.492 2560.44 456.165 2470.68 456.445C2453.22 456.5 2435.18 453.068 2418.38 448.016C2365.29 432.05 2334.83 391.731 2332.02 327.088C2329.21 262.279 2330.51 197.254 2331.45 132.341C2331.87 103.133 2350.05 85.3259 2374.29 85.9619C2398.88 86.607 2414.76 104.182 2415.14 133.832C2415.8 185.766 2415.37 237.714 2415.42 289.659C2415.42 297.921 2415.13 306.214 2415.71 314.441C2419.04 362.322 2467.3 387.429 2508.56 362.823C2527.22 351.693 2530.91 333.798 2530.87 313.955C2530.74 259.652 2530.8 205.348 2531.03 151.043C2531.07 140.468 2530.9 129.609 2533.13 119.384C2537.88 97.6548 2555.93 84.503 2576.82 85.7916C2597.14 87.0305 2613.74 102.725 2614.51 125.353C2615.76 161.904 2614.85 198.53 2614.85 235.124L2614.96 235.122Z" fill="white"/>
<path d="M1149.21 227.83C1149.21 253.79 1149.2 279.75 1149.2 305.709C1149.2 311.608 1149.35 317.533 1148.88 323.402C1138.27 456.219 1030.58 476.325 945.229 440.475C924.043 431.583 910.933 415.584 909.73 391.833C908.371 365.083 926.055 348.949 952.326 354.331C963.628 356.646 974.086 363.073 984.916 367.665C1023.27 383.904 1053.25 368.936 1062.07 328.082C1064.77 315.552 1064.94 302.325 1065.02 289.407C1065.37 236.311 1065.45 183.213 1065.25 130.112C1065.21 111.853 1072.58 98.0014 1088.8 89.7027C1104.11 81.8774 1118.94 85.2851 1132.13 94.9418C1145.76 104.922 1149.09 119.89 1149.14 135.787C1149.24 166.466 1149.17 197.145 1149.17 227.824L1149.21 227.83Z" fill="white"/>
<path d="M894.577 231.316C894.577 263.156 895.519 295.027 894.406 326.829C890.641 434.329 783.21 492.635 689.557 438.247C682.523 434.161 675.817 428.882 670.316 422.912C653.446 404.607 651.268 381.011 664.103 364.884C674.688 351.577 693.544 349.537 716.122 359.252C783.263 388.147 810.402 370.264 810.593 296.831C810.721 247.302 810.538 197.772 810.71 148.242C810.742 138.85 810.594 129.2 812.592 120.121C817.434 98.116 835.524 84.4291 855.798 86.0312C876.634 87.6801 893.007 102.912 894.216 125.218C895.684 152.268 894.803 179.443 894.92 206.565C894.954 214.818 894.92 223.075 894.92 231.33L894.577 231.316Z" fill="white"/>
<path d="M1276.59 268.43C1276.59 308.622 1276.6 348.814 1276.6 389.006C1276.61 400.885 1276.2 412.709 1271.23 423.778C1263.55 440.897 1245.79 451.618 1228.66 449.684C1209.08 447.476 1194.27 433.173 1193.38 411.754C1192.05 379.889 1192.76 347.936 1192.73 316.021C1192.68 260.455 1192.68 204.895 1192.73 149.338C1192.73 141.065 1192.33 132.726 1193.21 124.534C1195.46 103.402 1209.53 88.8617 1228.95 86.723C1245.73 84.8767 1263.7 95.9968 1271.3 113.06C1276.24 124.151 1276.61 135.969 1276.6 147.848C1276.58 188.043 1276.57 228.237 1276.59 268.43Z" fill="white"/>
</g>
</mask>
<g mask="url(#mask0_213_128)">
<rect y="0.301636" width="2615.15" height="537.698" fill="url(#paint0_linear_213_128)"/>
</g>
<defs>
<linearGradient id="paint0_linear_213_128" x1="1307.57" y1="0.301636" x2="1307.57" y2="538" gradientUnits="userSpaceOnUse">
<stop stop-color="#9FC1E4"/>
<stop offset="1" stop-color="#95D3CE"/>
</linearGradient>
<clipPath id="clip0_213_128">
<rect width="2615.17" height="537.698" fill="white" transform="translate(0 0.301636)"/>
</clipPath>
</defs>
</svg>
