<svg width="150" height="150" viewBox="0 0 150 150" fill="none" xmlns="http://www.w3.org/2000/svg">
<g clip-path="url(#clip0_207_327)">
<path d="M120.933 30.0662C112.84 24.7987 107.003 16.3669 105.179 6.543C104.787 4.42095 104.569 2.23493 104.569 0H78.7434L78.702 103.349C78.2687 114.922 68.7283 124.212 57.0363 124.212C53.4003 124.212 49.979 123.305 46.9646 121.721C40.0542 118.09 35.3255 110.859 35.3255 102.536C35.3255 90.5824 45.0656 80.8563 57.0326 80.8563C59.267 80.8563 61.4109 81.2251 63.4381 81.8572V55.5309C61.3393 55.2449 59.2067 55.0681 57.0326 55.0681C30.8228 55.0681 9.5 76.3601 9.5 102.536C9.5 118.594 17.5332 132.805 29.7941 141.399C37.5146 146.813 46.9081 150 57.0363 150C83.2461 150 104.569 128.708 104.569 102.536V50.1279C114.697 57.3858 127.109 61.6638 140.5 61.6638V35.8755C133.288 35.8755 126.57 33.7347 120.933 30.0662Z" fill="white"/>
</g>
<defs>
<clipPath id="clip0_207_327">
<rect width="131" height="150" fill="white" transform="translate(9.5)"/>
</clipPath>
</defs>
</svg>
