<svg id="레이어_1" data-name="레이어 1" xmlns="http://www.w3.org/2000/svg" viewBox="0 0 5671.68 5762.45"><defs><style>.cls-1{fill:#fefeff;}</style></defs><title>jjinggu1</title><path class="cls-1" d="M4899.74,3654.5c53.29-.65,106.59-1.21,159.89-2,26.64-.39,53.28-.72,79.59-6.11a114.35,114.35,0,0,1,24.83-2.29c51.85.94,103-7.15,154.07-13.64,66-8.39,131.58-20,197.07-31.76,93.45-16.8,185.55-39.68,277.06-64.91,73.89-20.37,146.39-45,218.26-71.61,56.22-20.8,111.92-42.84,166.76-67.16q107.43-47.62,210-104.72c61.18-34,121.13-69.91,178.92-109.43,74.25-50.77,146-104.63,214.43-163.22A2000.28,2000.28,0,0,0,6952.8,2851c74.46-81.06,139.91-169.29,197.42-263.33,58.5-95.64,105-196.87,140.43-303.06,21.05-63.17,38.33-127.54,47.41-193.78,5.42-39.55,11.2-79,16.36-118.62,1.51-11.53,1.8-23.25,2-34.89.49-25,.39-50,.89-75,1.35-68.5-6.83-136.09-17.56-203.61-12.59-79.22-32.88-156.31-59.41-231.87-31.58-89.91-74.23-174.65-121.23-257.25-37.13-65.26-80.86-126.16-127.35-185-23.72-30-49.17-58.68-74.39-87.48-18.84-21.51-34.48-44.56-43.86-71.94-19.75-57.63-10.89-111,20.22-162.47,24.86-41.17,62.19-64.37,106.5-77.32,68.49-20,128.14-2,179,46.6,24.06,23,45.08,48.85,66.7,74.23,55.19,64.8,104.82,133.53,151.49,204.56,30.19,46,57.52,93.55,83.82,141.86,51.94,95.38,93.73,195,127.63,298A1481.64,1481.64,0,0,1,7707,1593.21c5.22,34.53,10.69,69,15.61,103.62,1.63,11.51,2.19,23.2,2.74,34.83,1.72,36.57,2.38,73.11,6.65,109.64,2.88,24.54-.05,49.82-1.05,74.74-.46,11.61-3.88,23.19-3.59,34.72,1.31,51.88-6.76,103-13.06,154.11-5.07,41.21-14.06,82-22.71,122.7-24,112.75-60.7,221.33-106.62,327.09-37.26,85.81-82.3,167.12-131.59,246.48-46.67,75.17-100.11,145.16-155.05,214.26-21.82,27.45-45.15,53.35-69,78.93-21.55,23.13-41.79,47.51-63.78,70.2C7115.73,3216,7060.8,3261.9,7007,3309.09c-92.95,81.51-193.5,152.48-297.07,219.36-64.35,41.55-130.16,80.74-198.6,115.41-80.23,40.64-160.31,81.6-243.51,116-41.55,17.16-83.05,34.54-125.24,50-136.12,49.9-274.36,93-415.76,125.4-79.48,18.23-159.16,35.56-240,46.87-62.59,8.76-125.11,18-187.69,26.76-9.87,1.38-19.93,1.42-29.9,2s-20.16,0-29.9,1.84c-44.47,8.3-89.46,8.22-134.38,9.42-5,.13-10.06-.11-15,.65-66.2,10.31-132.93,6.59-199.48,7.38q-47.46.55-94.93-.74c-19.93-.54-39.8-2.8-59.71-4.19-16.59-1.15-33.19-2.51-49.81-3.17-41.56-1.64-83.33-.24-124.39-9a62.05,62.05,0,0,0-9.94-.9c-56.6-2.66-112.43-11.73-168.52-19q-99.08-12.92-196.94-32.5c-86.52-17.33-172.65-36.58-257.39-61.41-55.92-16.38-112.1-32.09-167.25-50.78-78.84-26.71-156.83-55.88-233.59-88.27-79.85-33.71-157.52-72-234.5-111.67-133.51-68.84-259.66-149.43-380.3-238.85-46.84-34.73-91.47-72.16-136.86-108.68-1.29-1-2.58-2.11-3.77-3.28-46.37-45.46-98.11-85.13-142.58-132.65-35.18-37.59-127.37-140.44-164.12-188-25.48-32.95-50.71-66.07-74.2-100.35-29.17-42.54-57.77-85.69-83.24-130.49-32.06-56.38-63.25-113.25-89.5-172.9-28.9-65.67-55.36-132.08-76.88-200.43a1694.14,1694.14,0,0,1-60.17-262.64c-7.24-49.24-14.71-98.82-13.48-149.06.33-13.22-1.58-26.58-3.39-39.75a353.19,353.19,0,0,1,.22-99.55,287.72,287.72,0,0,0,3.05-34.8c3.27-134,28.77-264.26,65.34-392.89,24.22-85.21,57.54-166.65,93.55-247.32,57.36-128.49,132.29-246.34,216.69-358.22,40-53.08,80.88-105.82,128.2-153,17.94-17.89,37.45-32.82,60.82-42.84,20.13-8.64,41.54-11.9,62.76-16a34.68,34.68,0,0,1,10-.32c47.33,4.7,91.62,17.33,127.72,50.39,28,25.61,44.66,58.19,53.46,94.26,15.8,64.76-1.47,122-44.9,171.38-35.17,40-69.43,80.77-101.94,123-92.14,119.66-163.65,251-217.76,391.6-29.34,76.26-49.32,155.44-64.08,235.87-5.41,29.49-7.62,59.44-12,89-10.2,68-7.81,136.19-7.14,204.4.17,16.57,2.32,33.18,4.38,49.67,4.12,33,8.76,65.94,13.26,98.89,13.38,98,42.83,191.56,78.92,283.14,53.5,135.78,128.21,259.38,216.72,375.09,67,87.62,142.7,167.27,224.06,241.25,71.44,65,147.6,124.44,227.17,179.36a2447.2,2447.2,0,0,0,354.82,203.8q99.51,46.49,202.29,85.76c132.61,50.36,268.2,90.31,406.35,121.82,66.51,15.17,133.42,28.47,200.89,39,51,8,101.95,15,153.27,20.63,38.1,4.16,76.28,6.24,114.3,10.05,44.79,4.48,89.45,8.53,134.47,8.42,43.3-.11,86.61,0,129.91,0C4899.74,3653.62,4899.74,3654.06,4899.74,3654.5Z" transform="translate(-2061.59 1732.11)"/><path class="cls-1" d="M2628.49-674.13c0-17.82.1-24.49,0-31.15-1.78-104.36,18.53-205.36,48.85-304.41,17.55-57.33,43-111.61,70.13-165.25,31.78-62.88,72-119.79,115.49-174.64,16.49-20.82,35.78-39.43,53.84-59,48.81-52.86,104-98.44,162.82-139.46A987.19,987.19,0,0,1,3305-1665.38c75.34-27.62,152.9-46.06,232.15-57.86a150.73,150.73,0,0,1,19.9-1.65c56.39-.85,112.69-11.47,169.19-1.76,75.43.85,149.06,14.2,221.38,34.31,67.48,18.76,133.15,43,195.31,75.68,90.42,47.48,173.66,105.16,246.2,177.49,33,32.92,66,65.75,95.18,102.38,16.54,20.78,36.56,38.74,54.52,58.42,59.47,65.14,120.67,128.71,178.33,195.51,4.35,5,9,9.8,13.56,14.67,34.14,36.44,69.53,71.66,101.5,110.19,16.91,20.38,37.32,37.89,56.34,56.49,3.91,3.82,14.88,3.78,18.76-.13,22.25-22.44,44.57-44.82,66.27-67.78,16-16.93,30.79-35,46.61-52.06,54.26-58.66,109.89-116.1,162.7-176,33.06-37.51,67.59-73.52,101.49-110.18,14.68-15.87,27.68-33.3,42.52-49,29.74-31.47,59.72-62.73,90.49-93.18,51.14-50.6,109.06-92.38,170.21-130.12,103.28-63.76,215.16-105.32,333.45-129.73,42.23-8.72,85.07-15.41,128.54-16.67,24.9-.72,49.72-5.67,74.58-5.72s49.7,4.87,74.6,5.45c77.24,1.8,151.92,17.81,225.55,39.5,89.93,26.49,175.44,63.4,254.24,114.47,57.3,37.14,112.73,77,161.35,125.5,11.8,11.75,23.67,23.44,35.44,35.22,62.72,62.86,114.81,133.5,158.63,210.81,58.11,102.51,96.69,212,118.27,327.23,8.53,45.59,15.62,91.89,14.42,138.83-.72,28.3,0,56.63.06,84.94.27,87.36-16.25,172.17-40.53,255.53-27.17,93.24-66.26,181.5-119.27,263-23.56,36.2-50.1,70.57-76.77,104.61-25.49,32.54-60,52-99.82,62.68-16.28,4.38-32.64,6.59-49.39,5.73-75.18-3.84-147.37-53-171.58-131-18-58-9.41-111.75,24.94-161.53,6.61-9.58,13.79-18.78,20.91-28A662.56,662.56,0,0,0,6772-514.85c8.17-30.48,13.11-61.68,17.26-93.13a620.12,620.12,0,0,0,0-164c-6.82-51.57-17.63-102-36.28-150-24.13-62.14-55.13-120.95-96.62-174.09a684.47,684.47,0,0,0-156.05-146.1,655.16,655.16,0,0,0-223-97.17c-82-18.88-164.22-22.84-247.77-9.79-71.46,11.16-139.76,31.32-204,63.83-84.28,42.62-156.19,101.28-216.19,174.35-6.34,7.72-12.21,15.86-19,23.15-61.23,65.82-123,131.19-183.84,197.32-49.6,53.86-98.06,108.77-147.43,162.84-24.7,27.05-50.44,53.15-75.45,79.93-7.91,8.47-15.11,17.64-22.36,26.71-3.37,4.22-3,14.45,0,19,1.84,2.77,3.43,5.75,5.56,8.26,4.3,5.08,8.85,10,13.39,14.82,61.32,65.74,124.48,129.88,183.39,197.71,47,54.08,99.9,102.64,144.18,159.07,3.07,3.91,6.75,7.36,10.16,11,61.33,65.73,122.25,131.84,184.18,197,25.93,27.28,43,59,54.69,94.11,8.65,25.91,9.11,51.72,3.54,78.7-8.74,42.39-29.35,76.54-59.81,107.09-62.13,62.33-184.2,63.42-245.44.52-44.12-45.33-89.41-89.53-130.32-137.95-18.24-21.6-38.86-41.17-57.63-62.34C5211.89,3.63,5153-55.31,5099-118.66c-11.88-13.92-25.1-26.69-37.64-40-28.5-30.32-57.72-59.89-84.39-92-20.14-24.25-43.65-45.74-66-68.13-7.77-7.79-19.05-7.81-26.85.22-25.51,26.25-50.66,52.86-75.76,79.5-5.69,6.05-10.31,13.1-15.95,19.2q-74.59,80.66-149.39,161.13C4588.7-.21,4533,57.14,4480.39,117.28c-36.21,41.43-74.63,80.63-112.09,120.8-9.08,9.73-18.79,18.88-28.12,28.4-24.29,24.79-54.67,38-88.06,43.78-26.33,4.56-52.84,3.55-79.35-2.28-65-14.3-120.37-78.61-134.84-135-11-42.87-6.82-82.34,11.39-121.38,11.31-24.24,25.42-46.43,44.11-66.12,61.88-65.21,124.8-129.57,183.68-197.42,46.94-54.1,100-102.52,144.08-159.13,3.05-3.92,6.83-7.28,10.24-10.93q92-98.58,183.93-197.24c6.77-7.27,12.78-15.26,18.84-23.15,3.3-4.29,3.09-14.57-.24-19-5-6.62-9.93-13.35-15.55-19.41-57.74-62.24-117.4-122.82-172.92-187-48-55.43-101.83-105.37-147.74-162.59-10.39-12.94-22.82-24.24-34.23-36.38-26.21-27.89-52.57-55.56-77.22-85-53.9-64.33-116.73-118.85-190.27-159.8-65.93-36.71-136.47-61.38-210.81-75-41.08-7.56-82.39-10.55-124.18-10.34-80.95.41-158.54,17-234,45.28-103.65,38.9-189.92,102.82-263.22,184.6-49.35,55.07-85.7,118.63-113.85,186.85-15.27,37-27.6,75-34.89,114.45-3.32,18-5.64,36.11-8.21,54.21-.7,4.93-.11,10.07-1.06,14.93-9.42,48-5.28,95.78,0,144.06q15.91,146.71,92.5,271.88c16.49,27,34.47,53,55.15,77.12,28.21,32.93,40.85,72.87,42,115.17a174.41,174.41,0,0,1-30.64,104c-38.34,56.07-92.26,85.88-160.53,85.43-44.8-.3-84.6-17.2-118.11-47a292.59,292.59,0,0,1-37.58-40C2748.6-176,2680.08-320.51,2647.71-482,2634.23-549.26,2626.52-616.73,2628.49-674.13Z" transform="translate(-2061.59 1732.11)"/><path class="cls-1" d="M6417,550.58c.48,55.9-13.26,95.52-42.87,130.15-54.07,63.25-107.43,127.12-160.85,190.93-40.6,48.5-80.68,97.42-121.29,145.91-26.72,31.9-54,63.33-81,95-22.65,26.63-45.33,53.24-67.75,80.05q-91.29,109.17-182.39,218.48c-18.15,21.71-36.61,43.15-55,64.69-44.27,51.94-88.89,103.59-132.74,155.87-57.76,68.86-114.79,138.33-172.4,207.32-25.6,30.66-52,60.64-77.77,91.19-47.21,56-94.1,112.24-141.29,168.25-25.74,30.56-51.83,60.81-77.71,91.24-9.71,11.41-18.94,23.24-28.92,34.39-17.76,19.84-34.61,40.74-54.21,58.62-35.79,32.64-79,49.49-127.59,48.35-44.83-1.05-84.77-17.51-118-47.46-18.48-16.66-34.62-36-51.28-54.56-11.1-12.38-21.16-25.68-31.85-38.44q-68.91-82.31-137.94-164.52c-24.64-29.29-49.62-58.3-74.27-87.59-28.94-34.39-57.62-69-86.52-103.4q-33.72-40.14-67.69-80.08c-61.4-72.33-123.09-144.42-184.19-217-40.73-48.39-80.52-97.56-120.95-146.2-20.22-24.32-40.83-48.31-61.4-72.33-27.07-31.62-54.36-63-81.38-94.69-20.53-24-40.8-48.34-61.18-72.52-33.24-39.46-66.62-78.81-99.69-118.4-40.55-48.54-80.72-97.39-121.29-145.91-25.62-30.65-51.8-60.83-77.5-91.42-34.27-40.78-68.77-81.37-102.33-122.73-37.37-46.08-45.35-99.59-32.61-155.71,16.67-73.37,64.12-118.74,136.16-138.27,43.66-11.84,86.08-6.06,126.23,14.06a205.28,205.28,0,0,1,66.22,52.24c50.14,60,100.75,119.69,151,179.65,44.89,53.58,89.3,107.57,134.34,161,44,52.18,88.75,103.71,132.7,155.92,40.74,48.38,80.72,97.39,121.29,145.92,25.62,30.65,51.81,60.82,77.54,91.38,48.24,57.3,96.2,114.81,144.52,172,26.84,31.8,54.23,63.14,81.24,94.8,20.53,24.06,41.05,48.14,61.25,72.47,40.4,48.66,80.36,97.7,120.92,146.23q57.64,69,116.26,137.12c10.81,12.57,23.16,23.83,35.05,35.43,3.87,3.78,15.1,4,18.83.38,11.85-11.61,24.09-22.93,34.9-35.47,35.86-41.6,71.18-83.66,106.65-125.59q32.25-38.13,64.34-76.4,46.62-55.4,93.23-110.79c22.52-26.74,45.21-53.33,67.56-80.21,23.41-28.15,46.28-56.76,69.78-84.83q76.92-91.89,154.29-183.39c26.88-31.78,54.35-63,81.37-94.69,20.54-24.06,40.78-48.36,61.16-72.55,33.24-39.45,66.63-78.78,99.71-118.38,40.54-48.53,80.75-97.35,121.25-145.92q33.57-40.26,67.61-80.14,66.36-78,132.84-155.79c8.61-10.14,16.2-21.16,24.88-31.24,24.48-28.4,54.51-48.59,90.31-60.14,46.73-15.07,92.05-10.81,136.05,10,51.41,24.28,83.59,65.19,99.17,119C6416.43,527.67,6416.31,544.75,6417,550.58Z" transform="translate(-2061.59 1732.11)"/></svg>